<?xml version="1.0" encoding="UTF-8" standalone="no"?>
<!-- Created with Inkscape (http://www.inkscape.org/) -->

<svg
   xmlns:dc="http://purl.org/dc/elements/1.1/"
   xmlns:cc="http://creativecommons.org/ns#"
   xmlns:rdf="http://www.w3.org/1999/02/22-rdf-syntax-ns#"
   xmlns:svg="http://www.w3.org/2000/svg"
   xmlns="http://www.w3.org/2000/svg"
   xmlns:sodipodi="http://sodipodi.sourceforge.net/DTD/sodipodi-0.dtd"
   xmlns:inkscape="http://www.inkscape.org/namespaces/inkscape"
   width="600"
   height="600"
   viewBox="0 0 158.75 158.75001"
   version="1.1"
   id="svg8"
   inkscape:version="0.92.4 (5da689c313, 2019-01-14)"
   sodipodi:docname="favicon_alert_room_sin_marca.svg">
  <defs
     id="defs2" />
  <sodipodi:namedview
     id="base"
     pagecolor="#ffffff"
     bordercolor="#fffff"
     borderopacity="1.0"
     inkscape:pageopacity="0.0"
     inkscape:pageshadow="2"
     inkscape:zoom="0.70710678"
     inkscape:cx="732.28299"
     inkscape:cy="276.89572"
     inkscape:document-units="mm"
     inkscape:current-layer="layer1"
     showgrid="false"
     units="px"
     inkscape:window-width="1920"
     inkscape:window-height="1017"
     inkscape:window-x="1912"
     inkscape:window-y="-8"
     inkscape:window-maximized="1" />
  <metadata
     id="metadata5">
    <rdf:RDF>
      <cc:Work
         rdf:about="">
        <dc:format>image/svg+xml</dc:format>
        <dc:type
           rdf:resource="http://purl.org/dc/dcmitype/StillImage" />
        <dc:title></dc:title>
      </cc:Work>
    </rdf:RDF>
  </metadata>
  <g
     inkscape:label="Capa 1"
     inkscape:groupmode="layer"
     id="layer1"
     transform="translate(0,-138.24998)">
    <path
       style="opacity:0.97000002;fill:#e3dbdb;fill-opacity:1;stroke:#e3dbdb;stroke-width:0.75590551;stroke-linecap:square;stroke-linejoin:bevel;stroke-miterlimit:4;stroke-dasharray:none;stroke-opacity:1;paint-order:markers fill stroke"
       d=""
       id="path3061"
       inkscape:connector-curvature="0"
       transform="matrix(0.26458333,0,0,0.26458333,0,11.249983)" />
    <path
       style="fill:#ececec;fill-opacity:1;fill-rule:nonzero;stroke:#fc6c14;stroke-width:0.42502293;stroke-linecap:square;stroke-linejoin:miter;stroke-miterlimit:4;stroke-dasharray:none;stroke-opacity:1;paint-order:markers fill stroke"
       inkscape:connector-curvature="0"
       d="m 30.219832,180.88568 14.024604,-16.20835 19.394386,-4.80979 19.141689,-6.98409 20.784209,5.99577 19.20487,9.48782 22.80577,34.59099 -0.63174,21.47935 -1.83204,23.3901 -24.70099,31.95548 -20.089301,5.92989 -18.952168,5.92988 -39.357336,-15.81302 -11.876692,-16.999 -13.771909,-18.71208 3.853608,-41.90451 12.00304,-17.06489 -10.613215,37.75359 -1.326651,-20.42515 1.326651,20.35927 -5.243433,21.28169 5.306607,-21.28169 8.465302,39.92788 30.702513,22.13823 39.357336,4.74391 31.144728,-24.70785 13.70874,-13.24341 1.89521,-23.32421 -15.66712,36.36996 -37.967513,0.72476 7.012302,24.31252 -7.012302,-24.37841 -32.471381,19.43684 -12.31891,-36.76527 -18.383603,14.75882 18.383603,-14.8906 -26.722557,-25.10317 28.680948,-24.70785 -18.130908,-13.3093 33.292643,-21.01814 39.925898,-0.85654 28.49143,27.21158 12.88747,38.28069 -24.25877,-0.92242 11.43447,-37.55593 -37.714812,-4.34859 -31.207904,-21.47935 -14.845865,33.93211 -1.95839,49.67925 44.474421,17.39432 38.66242,-0.39532 -8.78117,-37.16061 -29.502207,37.55593 -10.170997,-40.65264 13.203344,-38.93957 9.16021,-23.32421 -8.84434,23.45598 -46.622334,12.38687 33.482164,27.01391 -34.745642,22.73123 34.871989,-22.99478 38.978293,2.17429 -25.838123,-41.04797"
       id="path2717" />
    <path
       inkscape:connector-curvature="0"
       id="path2893"
       d="m 122.76959,168.36697 9.28656,17.78965 13.51921,16.80134"
       style="fill:#ececec;fill-opacity:1;stroke:#fc6c14;stroke-width:0.42502293;stroke-linecap:butt;stroke-linejoin:miter;stroke-miterlimit:4;stroke-dasharray:none;stroke-opacity:1;paint-order:markers fill stroke" />
    <path
       style="fill:#ececec;fill-opacity:1;stroke:#fc6c14;stroke-width:0.39999998;stroke-linecap:butt;stroke-linejoin:miter;stroke-miterlimit:4;stroke-dasharray:none;stroke-opacity:1;paint-order:markers fill stroke"
       d="m 58.837556,280.90302 20.531518,10.73966"
       id="path2899"
       inkscape:connector-curvature="0" />
    <path
       style="fill:#ececec;fill-opacity:1;stroke:#fc6c14;stroke-width:0.39999998;stroke-linecap:butt;stroke-linejoin:miter;stroke-miterlimit:4;stroke-dasharray:none;stroke-opacity:1;paint-order:markers fill stroke"
       d="m 40.011738,275.82967 18.825818,5.00746"
       id="path2901"
       inkscape:connector-curvature="0" />
    <path
       style="fill:#28220b;fill-opacity:1;fill-rule:nonzero;stroke:#28220b;stroke-width:0.96389121;stroke-linecap:square;stroke-linejoin:miter;stroke-opacity:1;paint-order:stroke fill markers"
       inkscape:connector-curvature="0"
       d="m 94.214956,180.55623 c 0.442213,0 0.758085,0.39533 0.758085,0.85655 0,0.46121 -0.315872,0.85654 -0.758085,0.85654 -0.379042,0 -0.758089,-0.39533 -0.758089,-0.85654 0,-0.46122 0.379047,-0.85655 0.758089,-0.85655 z"
       id="path2713" />
    <path
       style="fill:#28220b;fill-opacity:1;fill-rule:nonzero;stroke:#28220b;stroke-width:0.96389121;stroke-linecap:square;stroke-linejoin:miter;stroke-opacity:1;paint-order:stroke fill markers"
       inkscape:connector-curvature="0"
       d="m 46.392319,243.14946 c 0.568569,0 1.010778,0.39533 1.010778,0.92243 0,0.46121 -0.442209,0.85654 -1.010778,0.85654 -0.568571,0 -1.01078,-0.39533 -1.01078,-0.85654 0,-0.5271 0.442209,-0.92243 1.01078,-0.92243 z"
       id="path2715" />
    <path
       style="fill:#28220b;fill-opacity:1;fill-rule:nonzero;stroke:#28220b;stroke-width:0.10271184;stroke-linecap:square;stroke-linejoin:miter;stroke-opacity:1;paint-order:stroke fill markers"
       inkscape:connector-curvature="0"
       d="m 80.379875,217.32152 c 2.021563,0 3.664083,1.71308 3.664083,3.82148 0,2.04251 -1.64252,3.7556 -3.664083,3.7556 -2.021563,0 -3.664084,-1.71309 -3.664084,-3.7556 0,-2.1084 1.642521,-3.82148 3.664084,-3.82148 z"
       id="path2719" />
    <path
       style="fill:#28220b;fill-opacity:1;fill-rule:nonzero;stroke:#28220b;stroke-width:0.28916737;stroke-linecap:square;stroke-linejoin:miter;stroke-opacity:1;paint-order:stroke fill markers"
       inkscape:connector-curvature="0"
       d="m 63.196579,157.82502 c 1.137127,0 1.958388,0.92243 1.958388,2.04252 0,1.12008 -0.821261,2.04251 -1.958388,2.04251 -1.073964,0 -1.958396,-0.92243 -1.958396,-2.04251 0,-1.12009 0.884432,-2.04252 1.958396,-2.04252 z"
       id="path2721" />
    <path
       style="fill:#28220b;fill-opacity:1;fill-rule:nonzero;stroke:#28220b;stroke-width:0.02309328;stroke-linecap:square;stroke-linejoin:miter;stroke-opacity:1;paint-order:stroke fill markers"
       inkscape:connector-curvature="0"
       d="m 44.497107,163.49135 c 0.568561,0 1.073955,0.5271 1.073955,1.12009 0,0.65887 -0.505394,1.12009 -1.073955,1.12009 -0.631747,0 -1.073964,-0.46122 -1.073964,-1.12009 0,-0.59299 0.442217,-1.12009 1.073964,-1.12009 z"
       id="path2723" />
    <path
       style="fill:#28220b;fill-opacity:1;fill-rule:nonzero;stroke:#28220b;stroke-width:0.01773384;stroke-linecap:square;stroke-linejoin:miter;stroke-opacity:1;paint-order:stroke fill markers"
       inkscape:connector-curvature="0"
       d="m 82.78048,151.36804 c 0.758084,0 1.453002,0.72475 1.453002,1.5154 0,0.85654 -0.694918,1.58131 -1.453002,1.58131 -0.821256,0 -1.452997,-0.72477 -1.452997,-1.58131 0,-0.79065 0.631741,-1.5154 1.452997,-1.5154 z"
       id="path2725" />
    <path
       style="fill:#28220b;fill-opacity:1;fill-rule:nonzero;stroke:#28220b;stroke-width:0.02543988;stroke-linecap:square;stroke-linejoin:miter;stroke-opacity:1;paint-order:stroke fill markers"
       inkscape:connector-curvature="0"
       d="m 103.18565,157.10025 c 0.88443,0 1.57935,0.72477 1.57935,1.6472 0,0.92243 -0.69492,1.71307 -1.57935,1.71307 -0.88444,0 -1.64252,-0.79064 -1.64252,-1.71307 0,-0.92243 0.75808,-1.6472 1.64252,-1.6472 z"
       id="path2727" />
    <path
       style="fill:#28220b;fill-opacity:1;fill-rule:nonzero;stroke:#28220b;stroke-width:0.00933818;stroke-linecap:square;stroke-linejoin:miter;stroke-opacity:1;paint-order:stroke fill markers"
       inkscape:connector-curvature="0"
       d="m 122.45368,167.24695 c 0.5054,0 0.94762,0.46121 0.94762,0.9883 0,0.5271 -0.44222,0.98832 -0.94762,0.98832 -0.50538,0 -0.9476,-0.46122 -0.9476,-0.98832 0,-0.52709 0.44222,-0.9883 0.9476,-0.9883 z"
       id="path2729" />
    <path
       style="fill:#28220b;fill-opacity:1;fill-rule:nonzero;stroke:#28220b;stroke-width:0.00705049;stroke-linecap:square;stroke-linejoin:miter;stroke-opacity:1;paint-order:stroke fill markers"
       inkscape:connector-curvature="0"
       d="m 145.76486,201.64027 c 0.69491,0 1.26347,0.59299 1.26347,1.31775 0,0.72477 -0.56856,1.31776 -1.26347,1.31776 -0.69493,0 -1.26349,-0.59299 -1.26349,-1.31776 0,-0.72476 0.56856,-1.31775 1.26349,-1.31775 z"
       id="path2731" />
    <path
       style="fill:#28220b;fill-opacity:1;fill-rule:nonzero;stroke:#28220b;stroke-width:0.00870545;stroke-linecap:square;stroke-linejoin:miter;stroke-opacity:1;paint-order:stroke fill markers"
       inkscape:connector-curvature="0"
       d="m 144.94358,222.06542 c 1.20031,0 2.2111,1.05421 2.2111,2.30607 0,1.31775 -1.01079,2.30607 -2.2111,2.30607 -1.26347,0 -2.21108,-0.98832 -2.21108,-2.30607 0,-1.25186 0.94761,-2.30607 2.21108,-2.30607 z"
       id="path2733" />
    <path
       style="fill:#28220b;fill-opacity:1;fill-rule:nonzero;stroke:#28220b;stroke-width:0.007701;stroke-linecap:square;stroke-linejoin:miter;stroke-opacity:1;paint-order:stroke fill markers"
       inkscape:connector-curvature="0"
       d="m 143.04838,246.83916 c 0.50538,0 0.94761,0.46122 0.94761,0.98832 0,0.5271 -0.44223,0.98831 -0.94761,0.98831 -0.5054,0 -0.94761,-0.46121 -0.94761,-0.98831 0,-0.5271 0.44221,-0.98832 0.94761,-0.98832 z"
       id="path2735" />
    <path
       style="fill:#28220b;fill-opacity:1;fill-rule:nonzero;stroke:#28220b;stroke-width:0.01002613;stroke-linecap:square;stroke-linejoin:miter;stroke-opacity:1;paint-order:stroke fill markers"
       inkscape:connector-curvature="0"
       d="m 129.52917,259.02837 c 0.69491,0 1.32665,0.65888 1.32665,1.38364 0,0.79065 -0.63174,1.38363 -1.32665,1.38363 -0.7581,0 -1.32666,-0.59298 -1.32666,-1.38363 0,-0.72476 0.56856,-1.38364 1.32666,-1.38364 z"
       id="path2737" />
    <path
       style="fill:#28220b;fill-opacity:1;fill-rule:nonzero;stroke:#70b200;stroke-width:0.00370364;stroke-linecap:square;stroke-linejoin:miter;stroke-opacity:1;paint-order:stroke fill markers"
       inkscape:connector-curvature="0"
       d="m 118.41056,278.92642 c 0.50539,0 0.88443,0.39533 0.88443,0.85654 0,0.52709 -0.37904,0.92242 -0.88443,0.92242 -0.44222,0 -0.82126,-0.39533 -0.82126,-0.92242 0,-0.46121 0.37904,-0.85654 0.82126,-0.85654 z"
       id="path2739" />
    <path
       style="fill:#28220b;fill-opacity:1;fill-rule:nonzero;stroke:#70b200;stroke-width:0.00613285;stroke-linecap:square;stroke-linejoin:miter;stroke-opacity:1;paint-order:stroke fill markers"
       inkscape:connector-curvature="0"
       d="m 98.194915,282.15491 c 1.832035,0 3.348215,1.58131 3.348215,3.49205 0,1.97662 -1.51618,3.55793 -3.348215,3.55793 -1.832049,0 -3.285046,-1.58131 -3.285046,-3.55793 0,-1.91074 1.452997,-3.49205 3.285046,-3.49205 z"
       id="path2741" />
    <path
       style="fill:#28220b;fill-opacity:1;fill-rule:nonzero;stroke:#70b200;stroke-width:0.00316501;stroke-linecap:square;stroke-linejoin:miter;stroke-opacity:1;paint-order:stroke fill markers"
       inkscape:connector-curvature="0"
       d="m 58.837573,279.5853 c 0.694918,0 1.263479,0.59299 1.263479,1.31774 0,0.72477 -0.568561,1.25187 -1.263479,1.25187 -0.631732,0 -1.200303,-0.5271 -1.200303,-1.25187 0,-0.72475 0.568571,-1.31774 1.200303,-1.31774 z"
       id="path2743" />
    <path
       style="fill:#28220b;fill-opacity:1;fill-rule:nonzero;stroke:#70b200;stroke-width:0.00316501;stroke-linecap:square;stroke-linejoin:miter;stroke-opacity:1;paint-order:stroke fill markers"
       inkscape:connector-curvature="0"
       d="m 40.011753,274.7755 c 0.56857,0 1.073955,0.46122 1.073955,1.05421 0,0.59299 -0.505385,1.12009 -1.073955,1.12009 -0.568561,0 -1.01078,-0.5271 -1.01078,-1.12009 0,-0.59299 0.442219,-1.05421 1.01078,-1.05421 z"
       id="path2745" />
    <path
       style="fill:#28220b;fill-opacity:1;fill-rule:nonzero;stroke:#28220b;stroke-width:0.005388;stroke-linecap:square;stroke-linejoin:miter;stroke-opacity:1;paint-order:stroke fill markers"
       inkscape:connector-curvature="0"
       d="m 28.198239,256.85408 c 1.010784,0 1.832039,0.85653 1.832039,1.97663 0,1.0542 -0.821255,1.91074 -1.832039,1.91074 -1.010788,0 -1.89522,-0.85654 -1.89522,-1.91074 0,-1.1201 0.884432,-1.97663 1.89522,-1.97663 z"
       id="path2747" />
    <path
       style="fill:#28220b;fill-opacity:1;fill-rule:nonzero;stroke:#28220b;stroke-width:0.00348507;stroke-linecap:square;stroke-linejoin:miter;stroke-opacity:1;paint-order:stroke fill markers"
       inkscape:connector-curvature="0"
       d="m 14.363158,238.86676 c 0.631732,0 1.137127,0.59299 1.137127,1.25187 0,0.65888 -0.505395,1.18597 -1.137127,1.18597 -0.631742,0 -1.200303,-0.52709 -1.200303,-1.18597 0,-0.65888 0.568561,-1.25187 1.200303,-1.25187 z"
       id="path2749" />
    <path
       style="fill:#28220b;fill-opacity:1;fill-rule:nonzero;stroke:#28220b;stroke-width:0.00216302;stroke-linecap:square;stroke-linejoin:miter;stroke-opacity:1;paint-order:stroke fill markers"
       inkscape:connector-curvature="0"
       d="m 19.796105,217.71684 c 0.758094,0 1.326655,0.59299 1.326655,1.38365 0,0.72476 -0.568561,1.38364 -1.326655,1.38364 -0.694908,0 -1.326649,-0.65888 -1.326649,-1.38364 0,-0.79066 0.631741,-1.38365 1.326649,-1.38365 z"
       id="path2751" />
    <path
       style="fill:#28220b;fill-opacity:1;fill-rule:nonzero;stroke:#28220b;stroke-width:0.00216302;stroke-linecap:square;stroke-linejoin:miter;stroke-opacity:1;paint-order:stroke fill markers"
       inkscape:connector-curvature="0"
       d="m 18.216766,196.56692 c 0.884431,0 1.579339,0.72476 1.579339,1.58131 0,0.85654 -0.694908,1.58131 -1.579339,1.58131 -0.821266,0 -1.516174,-0.72477 -1.516174,-1.58131 0,-0.85655 0.694908,-1.58131 1.516174,-1.58131 z"
       id="path2753" />
    <path
       style="fill:#28220b;fill-opacity:1;fill-rule:nonzero;stroke:#28220b;stroke-width:0.00262353;stroke-linecap:square;stroke-linejoin:miter;stroke-opacity:1;paint-order:stroke fill markers"
       inkscape:connector-curvature="0"
       d="m 30.34615,179.30438 c 0.82126,0 1.516174,0.72476 1.516174,1.51541 0,0.85654 -0.694914,1.5813 -1.516174,1.5813 -0.821266,0 -1.453002,-0.72476 -1.453002,-1.5813 0,-0.79065 0.631736,-1.51541 1.453002,-1.51541 z"
       id="path2755" />
    <path
       style="fill:#28220b;fill-opacity:1;fill-rule:nonzero;stroke:#28220b;stroke-width:0.00338991;stroke-linecap:square;stroke-linejoin:miter;stroke-opacity:1;paint-order:stroke fill markers"
       inkscape:connector-curvature="0"
       d="m 132.05612,184.77304 c 0.75808,0 1.32665,0.59299 1.32665,1.38365 0,0.72476 -0.56857,1.38364 -1.32665,1.38364 -0.69491,0 -1.32665,-0.65888 -1.32665,-1.38364 0,-0.79066 0.63174,-1.38365 1.32665,-1.38365 z"
       id="path2757" />
    <path
       style="fill:#28220b;fill-opacity:1;fill-rule:nonzero;stroke:#28220b;stroke-width:0.00338991;stroke-linecap:square;stroke-linejoin:miter;stroke-opacity:1;paint-order:stroke fill markers"
       inkscape:connector-curvature="0"
       d="m 48.224368,191.82302 c 1.389815,0 2.46378,1.12008 2.46378,2.56961 0,1.38365 -1.073965,2.50373 -2.46378,2.50373 -1.326656,0 -2.463782,-1.12008 -2.463782,-2.50373 0,-1.44953 1.137126,-2.56961 2.463782,-2.56961 z"
       id="path2759" />
    <path
       style="fill:#28220b;fill-opacity:1;fill-rule:nonzero;stroke:#28220b;stroke-width:0.00257492;stroke-linecap:square;stroke-linejoin:miter;stroke-opacity:1;paint-order:stroke fill markers"
       inkscape:connector-curvature="0"
       d="m 91.308956,259.09426 c 1.200303,0 2.211086,1.0542 2.211086,2.30607 0,1.25185 -1.010783,2.30606 -2.211086,2.30606 -1.200302,0 -2.211087,-1.05421 -2.211087,-2.30606 0,-1.25187 1.010785,-2.30607 2.211087,-2.30607 z"
       id="path2761" />
    <path
       style="fill:#28220b;fill-opacity:1;fill-rule:nonzero;stroke:#28220b;stroke-width:0.00171103;stroke-linecap:square;stroke-linejoin:miter;stroke-opacity:1;paint-order:stroke fill markers"
       inkscape:connector-curvature="0"
       d="m 120.748,219.75936 c 1.95838,0 3.60091,1.71307 3.60091,3.82148 0,2.04252 -1.64253,3.7556 -3.60091,3.7556 -2.02158,0 -3.66409,-1.71308 -3.66409,-3.7556 0,-2.10841 1.64251,-3.82148 3.66409,-3.82148 z"
       id="path2763" />
  </g>
</svg>
