<?xml version="1.0" encoding="UTF-8" standalone="no"?>
<!-- Created with Inkscape (http://www.inkscape.org/) -->

<svg
   xmlns:dc="http://purl.org/dc/elements/1.1/"
   xmlns:cc="http://creativecommons.org/ns#"
   xmlns:rdf="http://www.w3.org/1999/02/22-rdf-syntax-ns#"
   xmlns:svg="http://www.w3.org/2000/svg"
   xmlns="http://www.w3.org/2000/svg"
   xmlns:sodipodi="http://sodipodi.sourceforge.net/DTD/sodipodi-0.dtd"
   xmlns:inkscape="http://www.inkscape.org/namespaces/inkscape"
   width="180"
   height="50"
   viewBox="0 0 47.624999 13.229167"
   version="1.1"
   id="svg8"
   inkscape:version="0.92.4 (5da689c313, 2019-01-14)"
   sodipodi:docname="logotipo_alert_room_sin_marca.svg">
  <defs
     id="defs2" />
  <sodipodi:namedview
     id="base"
     pagecolor="#ffffff"
     bordercolor="#666666"
     borderopacity="1.0"
     inkscape:pageopacity="0.0"
     inkscape:pageshadow="2"
     inkscape:zoom="5.6568542"
     inkscape:cx="81.137724"
     inkscape:cy="16.601517"
     inkscape:document-units="mm"
     inkscape:current-layer="layer1"
     showgrid="false"
     units="px"
     inkscape:window-width="1920"
     inkscape:window-height="1017"
     inkscape:window-x="1912"
     inkscape:window-y="-8"
     inkscape:window-maximized="1"
     fit-margin-top="0"
     fit-margin-left="0"
     fit-margin-right="0"
     fit-margin-bottom="0" />
  <metadata
     id="metadata5">
    <rdf:RDF>
      <cc:Work
         rdf:about="">
        <dc:format>image/svg+xml</dc:format>
        <dc:type
           rdf:resource="http://purl.org/dc/dcmitype/StillImage" />
        <dc:title></dc:title>
      </cc:Work>
    </rdf:RDF>
  </metadata>
  <g
     inkscape:label="Capa 1"
     inkscape:groupmode="layer"
     id="layer1"
     transform="translate(-3.5000631,-281.81405)">
    <path
       style="opacity:0.97000002;fill:#e3dbdb;fill-opacity:1;stroke:#e3dbdb;stroke-width:0.75590551;stroke-linecap:square;stroke-linejoin:bevel;stroke-miterlimit:4;stroke-dasharray:none;stroke-opacity:1;paint-order:markers fill stroke"
       d=""
       id="path3061"
       inkscape:connector-curvature="0"
       transform="matrix(0.26458333,0,0,0.26458333,0,11.249983)" />
    <g
       style="fill:#ececec;fill-opacity:1;stroke:#fc6c14;stroke-width:0.80026883;stroke-opacity:1;paint-order:markers fill stroke"
       transform="matrix(0.57119832,0,0,0.6104587,325.72524,81.016736)"
       id="g2897">
      <path
         id="path2717"
         d="m -559.85798,333.62596 2.22,-2.46 3.07,-0.73 3.03,-1.06 3.29,0.91 3.04,1.44 3.61,5.25 -0.1,3.26 -0.29,3.55 -3.91,4.85 -3.18,0.9 -3,0.9 -6.23,-2.4 -1.88,-2.58 -2.18,-2.84 0.61,-6.36 1.9,-2.59 -1.68,5.73 -0.21,-3.1 0.21,3.09 -0.83,3.23 0.84,-3.23 1.34,6.06 4.86,3.36 6.23,0.72 4.93,-3.75 2.17,-2.01 0.3,-3.54 -2.48,5.52 -6.01,0.11 1.11,3.69 -1.11,-3.7 -5.14,2.95 -1.95,-5.58 -2.91,2.24 2.91,-2.26 -4.23,-3.81 4.54,-3.75 -2.87,-2.02 5.27,-3.19 6.32,-0.13 4.51,4.13 2.04,5.81 -3.84,-0.14 1.81,-5.7 -5.97,-0.66 -4.94,-3.26 -2.35,5.15 -0.31,7.54 7.04,2.64 6.12,-0.06 -1.39,-5.64 -4.67,5.7 -1.61,-6.17 2.09,-5.91 1.45,-3.54 -1.4,3.56 -7.38,1.88 5.3,4.1 -5.5,3.45 5.52,-3.49 6.17,0.33 -4.09,-6.23"
         inkscape:connector-curvature="0"
         style="fill:#ececec;fill-opacity:1;fill-rule:nonzero;stroke:#fc6c14;stroke-width:0.08468986;stroke-linecap:square;stroke-linejoin:miter;stroke-miterlimit:4;stroke-dasharray:none;stroke-opacity:1;paint-order:markers fill stroke" />
      <path
         style="fill:#ececec;fill-opacity:1;stroke:#fc6c14;stroke-width:0.08468986;stroke-linecap:butt;stroke-linejoin:miter;stroke-miterlimit:4;stroke-dasharray:none;stroke-opacity:1;paint-order:markers fill stroke"
         d="m -545.20798,331.72595 1.47,2.7 2.14,2.55"
         id="path2893"
         inkscape:connector-curvature="0" />
    </g>
    <path
       style="fill:#ececec;fill-opacity:1;stroke:#fc6c14;stroke-width:0.04706529;stroke-linecap:butt;stroke-linejoin:miter;stroke-miterlimit:4;stroke-dasharray:none;stroke-opacity:1;paint-order:markers fill stroke"
       d="m 8.5228271,293.94836 1.8563949,0.99505"
       id="path2899"
       inkscape:connector-curvature="0" />
    <path
       style="fill:#ececec;fill-opacity:1;stroke:#fc6c14;stroke-width:0.04706529;stroke-linecap:butt;stroke-linejoin:miter;stroke-miterlimit:4;stroke-dasharray:none;stroke-opacity:1;paint-order:markers fill stroke"
       d="m 6.8206563,293.47831 1.7021708,0.46395"
       id="path2901"
       inkscape:connector-curvature="0" />
    <path
       style="fill:#28220b;fill-opacity:1;fill-rule:nonzero;stroke:#28220b;stroke-width:0.11341455;stroke-linecap:square;stroke-linejoin:miter;stroke-opacity:1;paint-order:stroke fill markers"
       inkscape:connector-curvature="0"
       d="m 11.72154,284.65109 c 0.03998,0 0.06854,0.0367 0.06854,0.0793 0,0.0428 -0.02856,0.0793 -0.06854,0.0793 -0.03427,0 -0.06854,-0.0367 -0.06854,-0.0793 0,-0.0428 0.03427,-0.0793 0.06854,-0.0793 z"
       id="path2713" />
    <path
       style="fill:#28220b;fill-opacity:1;fill-rule:nonzero;stroke:#28220b;stroke-width:0.11341455;stroke-linecap:square;stroke-linejoin:miter;stroke-opacity:1;paint-order:stroke fill markers"
       inkscape:connector-curvature="0"
       d="m 7.3975683,290.45045 c 0.051409,0 0.091392,0.0367 0.091392,0.0855 0,0.0428 -0.039983,0.0793 -0.091392,0.0793 -0.051409,0 -0.091392,-0.0367 -0.091392,-0.0793 0,-0.0488 0.039983,-0.0855 0.091392,-0.0855 z"
       id="path2715" />
    <path
       style="fill:#28220b;fill-opacity:1;fill-rule:nonzero;stroke:#28220b;stroke-width:0.01208541;stroke-linecap:square;stroke-linejoin:miter;stroke-opacity:1;paint-order:stroke fill markers"
       inkscape:connector-curvature="0"
       d="m 10.470615,288.05744 c 0.182784,0 0.331295,0.15872 0.331295,0.35407 0,0.18924 -0.148511,0.34796 -0.331295,0.34796 -0.182783,0 -0.331295,-0.15872 -0.331295,-0.34796 0,-0.19535 0.148512,-0.35407 0.331295,-0.35407 z"
       id="path2719" />
    <path
       style="fill:#28220b;fill-opacity:1;fill-rule:nonzero;stroke:#28220b;stroke-width:0.03402437;stroke-linecap:square;stroke-linejoin:miter;stroke-opacity:1;paint-order:stroke fill markers"
       inkscape:connector-curvature="0"
       d="m 8.9169562,282.545 c 0.102815,0 0.1770713,0.0855 0.1770713,0.18925 0,0.10372 -0.074256,0.18923 -0.1770713,0.18923 -0.097104,0 -0.1770719,-0.0854 -0.1770719,-0.18923 0,-0.10386 0.079968,-0.18925 0.1770719,-0.18925 z"
       id="path2721" />
    <path
       style="fill:#28220b;fill-opacity:1;fill-rule:nonzero;stroke:#28220b;stroke-width:0.00271724;stroke-linecap:square;stroke-linejoin:miter;stroke-opacity:1;paint-order:stroke fill markers"
       inkscape:connector-curvature="0"
       d="m 7.2262092,283.06999 c 0.051407,0 0.097104,0.0488 0.097104,0.10385 0,0.0611 -0.045697,0.10373 -0.097104,0.10373 -0.057121,0 -0.097104,-0.0428 -0.097104,-0.10373 0,-0.0549 0.039983,-0.10385 0.097104,-0.10385 z"
       id="path2723" />
    <path
       style="fill:#28220b;fill-opacity:1;fill-rule:nonzero;stroke:#28220b;stroke-width:0.00208662;stroke-linecap:square;stroke-linejoin:miter;stroke-opacity:1;paint-order:stroke fill markers"
       inkscape:connector-curvature="0"
       d="m 10.68767,281.94675 c 0.06854,0 0.131376,0.0672 0.131376,0.1404 0,0.0793 -0.06283,0.14652 -0.131376,0.14652 -0.07426,0 -0.131375,-0.0672 -0.131375,-0.14652 0,-0.0732 0.05712,-0.1404 0.131375,-0.1404 z"
       id="path2725" />
    <path
       style="fill:#28220b;fill-opacity:1;fill-rule:nonzero;stroke:#28220b;stroke-width:0.00299334;stroke-linecap:square;stroke-linejoin:miter;stroke-opacity:1;paint-order:stroke fill markers"
       inkscape:connector-curvature="0"
       d="m 12.532641,282.47785 c 0.07997,0 0.1428,0.0672 0.1428,0.15261 0,0.0855 -0.06283,0.15872 -0.1428,0.15872 -0.07997,0 -0.148512,-0.0732 -0.148512,-0.15872 0,-0.0855 0.06855,-0.15261 0.148512,-0.15261 z"
       id="path2727" />
    <path
       style="fill:#28220b;fill-opacity:1;fill-rule:nonzero;stroke:#28220b;stroke-width:0.00109876;stroke-linecap:square;stroke-linejoin:miter;stroke-opacity:1;paint-order:stroke fill markers"
       inkscape:connector-curvature="0"
       d="m 14.274796,283.41795 c 0.0457,0 0.08568,0.0428 0.08568,0.0916 0,0.0488 -0.03998,0.0916 -0.08568,0.0916 -0.0457,0 -0.08568,-0.0428 -0.08568,-0.0916 0,-0.0488 0.03998,-0.0916 0.08568,-0.0916 z"
       id="path2729" />
    <path
       style="fill:#28220b;fill-opacity:1;fill-rule:nonzero;stroke:#28220b;stroke-width:0.00082959;stroke-linecap:square;stroke-linejoin:miter;stroke-opacity:1;paint-order:stroke fill markers"
       inkscape:connector-curvature="0"
       d="m 16.382518,286.60455 c 0.06283,0 0.114242,0.0549 0.114242,0.12212 0,0.0672 -0.05141,0.12212 -0.114242,0.12212 -0.06283,0 -0.114241,-0.0549 -0.114241,-0.12212 0,-0.0672 0.05141,-0.12212 0.114241,-0.12212 z"
       id="path2731" />
    <path
       style="fill:#28220b;fill-opacity:1;fill-rule:nonzero;stroke:#28220b;stroke-width:0.00102432;stroke-linecap:square;stroke-linejoin:miter;stroke-opacity:1;paint-order:stroke fill markers"
       inkscape:connector-curvature="0"
       d="m 16.308261,288.49697 c 0.10853,0 0.199921,0.0977 0.199921,0.21366 0,0.12212 -0.09139,0.21366 -0.199921,0.21366 -0.114241,0 -0.199919,-0.0916 -0.199919,-0.21366 0,-0.11599 0.08568,-0.21366 0.199919,-0.21366 z"
       id="path2733" />
    <path
       style="fill:#28220b;fill-opacity:1;fill-rule:nonzero;stroke:#28220b;stroke-width:0.00090613;stroke-linecap:square;stroke-linejoin:miter;stroke-opacity:1;paint-order:stroke fill markers"
       inkscape:connector-curvature="0"
       d="m 16.136903,290.79229 c 0.0457,0 0.08568,0.0428 0.08568,0.0916 0,0.0488 -0.03999,0.0916 -0.08568,0.0916 -0.0457,0 -0.08568,-0.0427 -0.08568,-0.0916 0,-0.0488 0.03998,-0.0916 0.08568,-0.0916 z"
       id="path2735" />
    <path
       style="fill:#28220b;fill-opacity:1;fill-rule:nonzero;stroke:#28220b;stroke-width:0.00117971;stroke-linecap:square;stroke-linejoin:miter;stroke-opacity:1;paint-order:stroke fill markers"
       inkscape:connector-curvature="0"
       d="m 14.914539,291.92165 c 0.06283,0 0.119953,0.0611 0.119953,0.12825 0,0.0732 -0.05712,0.12825 -0.119953,0.12825 -0.06855,0 -0.119954,-0.0549 -0.119954,-0.12825 0,-0.0672 0.05141,-0.12825 0.119954,-0.12825 z"
       id="path2737" />
    <path
       style="fill:#28220b;fill-opacity:1;fill-rule:nonzero;stroke:#70b200;stroke-width:0.00043578;stroke-linecap:square;stroke-linejoin:miter;stroke-opacity:1;paint-order:stroke fill markers"
       inkscape:connector-curvature="0"
       d="m 13.90923,293.76523 c 0.0457,0 0.07997,0.0367 0.07997,0.0793 0,0.0488 -0.03427,0.0855 -0.07997,0.0855 -0.03999,0 -0.07426,-0.0367 -0.07426,-0.0855 0,-0.0428 0.03427,-0.0793 0.07426,-0.0793 z"
       id="path2739" />
    <path
       style="fill:#28220b;fill-opacity:1;fill-rule:nonzero;stroke:#70b200;stroke-width:0.00072161;stroke-linecap:square;stroke-linejoin:miter;stroke-opacity:1;paint-order:stroke fill markers"
       inkscape:connector-curvature="0"
       d="m 12.081395,294.06436 c 0.165647,0 0.302734,0.1465 0.302734,0.32354 0,0.18314 -0.137087,0.32964 -0.302734,0.32964 -0.165648,0 -0.297024,-0.1465 -0.297024,-0.32964 0,-0.17704 0.131376,-0.32354 0.297024,-0.32354 z"
       id="path2741" />
    <path
       style="fill:#28220b;fill-opacity:1;fill-rule:nonzero;stroke:#70b200;stroke-width:0.00037241;stroke-linecap:square;stroke-linejoin:miter;stroke-opacity:1;paint-order:stroke fill markers"
       inkscape:connector-curvature="0"
       d="m 8.5228288,293.82627 c 0.062833,0 0.1142404,0.0549 0.1142404,0.12212 0,0.0672 -0.051407,0.11599 -0.1142404,0.11599 -0.05712,0 -0.1085283,-0.0488 -0.1085283,-0.11599 0,-0.0672 0.051409,-0.12212 0.1085283,-0.12212 z"
       id="path2743" />
    <path
       style="fill:#28220b;fill-opacity:1;fill-rule:nonzero;stroke:#70b200;stroke-width:0.00037241;stroke-linecap:square;stroke-linejoin:miter;stroke-opacity:1;paint-order:stroke fill markers"
       inkscape:connector-curvature="0"
       d="m 6.8206577,293.38064 c 0.051409,0 0.097104,0.0428 0.097104,0.0977 0,0.0549 -0.045695,0.10372 -0.097104,0.10372 -0.051407,0 -0.091392,-0.0488 -0.091392,-0.10372 0,-0.0549 0.039985,-0.0977 0.091392,-0.0977 z"
       id="path2745" />
    <path
       style="fill:#28220b;fill-opacity:1;fill-rule:nonzero;stroke:#28220b;stroke-width:0.00063397;stroke-linecap:square;stroke-linejoin:miter;stroke-opacity:1;paint-order:stroke fill markers"
       inkscape:connector-curvature="0"
       d="m 5.7525172,291.7202 c 0.091392,0 0.1656472,0.0793 0.1656472,0.18313 0,0.0977 -0.074255,0.17704 -0.1656472,0.17704 -0.091392,0 -0.1713597,-0.0793 -0.1713597,-0.17704 0,-0.10372 0.079968,-0.18313 0.1713597,-0.18313 z"
       id="path2747" />
    <path
       style="fill:#28220b;fill-opacity:1;fill-rule:nonzero;stroke:#28220b;stroke-width:0.00041007;stroke-linecap:square;stroke-linejoin:miter;stroke-opacity:1;paint-order:stroke fill markers"
       inkscape:connector-curvature="0"
       d="m 4.5015931,290.05365 c 0.05712,0 0.102815,0.0549 0.102815,0.11598 0,0.0611 -0.045697,0.10986 -0.102815,0.10986 -0.057121,0 -0.1085282,-0.0488 -0.1085282,-0.10986 0,-0.0611 0.051407,-0.11598 0.1085282,-0.11598 z"
       id="path2749" />
    <path
       style="fill:#28220b;fill-opacity:1;fill-rule:nonzero;stroke:#28220b;stroke-width:0.00025451;stroke-linecap:square;stroke-linejoin:miter;stroke-opacity:1;paint-order:stroke fill markers"
       inkscape:connector-curvature="0"
       d="m 4.9928229,288.09407 c 0.068545,0 0.1199525,0.0549 0.1199525,0.12825 0,0.0672 -0.051408,0.12825 -0.1199525,0.12825 -0.062832,0 -0.1199511,-0.0611 -0.1199511,-0.12825 0,-0.0733 0.057119,-0.12825 0.1199511,-0.12825 z"
       id="path2751" />
    <path
       style="fill:#28220b;fill-opacity:1;fill-rule:nonzero;stroke:#28220b;stroke-width:0.00025451;stroke-linecap:square;stroke-linejoin:miter;stroke-opacity:1;paint-order:stroke fill markers"
       inkscape:connector-curvature="0"
       d="m 4.8500241,286.1345 c 0.079968,0 0.1427988,0.0672 0.1427988,0.14651 0,0.0793 -0.062832,0.14651 -0.1427988,0.14651 -0.074256,0 -0.1370877,-0.0672 -0.1370877,-0.14651 0,-0.0793 0.062832,-0.14651 0.1370877,-0.14651 z"
       id="path2753" />
    <path
       style="fill:#28220b;fill-opacity:1;fill-rule:nonzero;stroke:#28220b;stroke-width:0.00030869;stroke-linecap:square;stroke-linejoin:miter;stroke-opacity:1;paint-order:stroke fill markers"
       inkscape:connector-curvature="0"
       d="m 5.9467245,284.5351 c 0.074256,0 0.1370877,0.0672 0.1370877,0.1404 0,0.0793 -0.062832,0.14652 -0.1370877,0.14652 -0.074256,0 -0.1313758,-0.0672 -0.1313758,-0.14652 0,-0.0732 0.057119,-0.1404 0.1313758,-0.1404 z"
       id="path2755" />
    <path
       style="fill:#28220b;fill-opacity:1;fill-rule:nonzero;stroke:#28220b;stroke-width:0.00039888;stroke-linecap:square;stroke-linejoin:miter;stroke-opacity:1;paint-order:stroke fill markers"
       inkscape:connector-curvature="0"
       d="m 15.143018,285.04178 c 0.06855,0 0.119954,0.0549 0.119954,0.12825 0,0.0672 -0.05141,0.12826 -0.119954,0.12826 -0.06283,0 -0.119954,-0.0611 -0.119954,-0.12826 0,-0.0732 0.05712,-0.12825 0.119954,-0.12825 z"
       id="path2757" />
    <path
       style="fill:#28220b;fill-opacity:1;fill-rule:nonzero;stroke:#28220b;stroke-width:0.00039888;stroke-linecap:square;stroke-linejoin:miter;stroke-opacity:1;paint-order:stroke fill markers"
       inkscape:connector-curvature="0"
       d="m 7.5632164,285.69497 c 0.1256632,0 0.2227671,0.10372 0.2227671,0.23807 0,0.12825 -0.097104,0.23198 -0.2227671,0.23198 -0.1199525,0 -0.2227674,-0.10373 -0.2227674,-0.23198 0,-0.13429 0.1028149,-0.23807 0.2227674,-0.23807 z"
       id="path2759" />
    <path
       style="fill:#28220b;fill-opacity:1;fill-rule:nonzero;stroke:#28220b;stroke-width:0.00030297;stroke-linecap:square;stroke-linejoin:miter;stroke-opacity:1;paint-order:stroke fill markers"
       inkscape:connector-curvature="0"
       d="m 11.458788,291.92775 c 0.108529,0 0.19992,0.0977 0.19992,0.21366 0,0.11599 -0.09139,0.21366 -0.19992,0.21366 -0.108527,0 -0.199919,-0.0977 -0.199919,-0.21366 0,-0.11599 0.09139,-0.21366 0.199919,-0.21366 z"
       id="path2761" />
    <path
       style="fill:#28220b;fill-opacity:1;fill-rule:nonzero;stroke:#28220b;stroke-width:0.00020132;stroke-linecap:square;stroke-linejoin:miter;stroke-opacity:1;paint-order:stroke fill markers"
       inkscape:connector-curvature="0"
       d="m 14.120573,288.28331 c 0.177071,0 0.325583,0.15872 0.325583,0.35406 0,0.18925 -0.148512,0.34797 -0.325583,0.34797 -0.182784,0 -0.331296,-0.15872 -0.331296,-0.34797 0,-0.19534 0.148512,-0.35406 0.331296,-0.35406 z"
       id="path2763" />
    <path
       style="fill:none;stroke:#28220b;stroke-width:0.13707764;stroke-linecap:butt;stroke-linejoin:miter;stroke-miterlimit:4;stroke-dasharray:none;stroke-opacity:1"
       d="M 17.091874,283.44645 H 39.640446"
       id="path3109-4"
       inkscape:connector-curvature="0" />
    <path
       style="fill:none;stroke:#28220b;stroke-width:0.13707764;stroke-linecap:butt;stroke-linejoin:miter;stroke-miterlimit:4;stroke-dasharray:none;stroke-opacity:1"
       d="M 17.091874,289.47634 H 39.640446"
       id="path3109-4-2"
       inkscape:connector-curvature="0" />
    <path
       id="path1035"
       style="font-style:normal;font-variant:normal;font-weight:normal;font-stretch:normal;font-size:63.99963379px;line-height:1.25;font-family:'Baskerville Old Face';-inkscape-font-specification:'Baskerville Old Face, Normal';font-variant-ligatures:normal;font-variant-caps:normal;font-variant-numeric:normal;font-feature-settings:normal;text-align:start;letter-spacing:0px;word-spacing:0px;writing-mode:lr-tb;text-anchor:start;fill:#ff6712;fill-opacity:1;stroke:#ff6712;stroke-width:0.07244496;stroke-opacity:1"
       d="M 20.557467,288.8072 H 19.03693 v -0.0795 q 0.205978,-0.0277 0.286981,-0.10373 0.14349,-0.13486 0.14349,-0.37345 0,-0.14177 -0.0648,-0.38037 l -0.03934,-0.14523 -0.222179,-0.81605 h -1.018319 l -0.120347,0.47718 -0.05786,0.21439 q -0.104146,0.38036 -0.104146,0.59821 0,0.12794 0.03703,0.23859 0.03934,0.11065 0.104146,0.17981 0.09026,0.0934 0.231437,0.11065 v 0.0795 h -1.036835 v -0.0795 q 0.122661,-0.0104 0.215236,-0.0899 0.09257,-0.0795 0.18052,-0.25588 0.07406,-0.14178 0.143491,-0.36308 0.07174,-0.22476 0.187463,-0.67082 l 0.847057,-3.26077 h 0.131919 l 1.006748,3.63421 q 0.113403,0.41149 0.18052,0.58784 0.06712,0.17635 0.145805,0.26626 0.05554,0.0622 0.12729,0.0968 0.07174,0.0311 0.215236,0.0553 z m -1.453421,-2.04014 -0.486016,-1.79117 -0.458243,1.79117 z"
       inkscape:connector-curvature="0" />
    <path
       id="path1037"
       style="font-style:normal;font-variant:normal;font-weight:normal;font-stretch:normal;font-size:63.99963379px;line-height:1.25;font-family:'Baskerville Old Face';-inkscape-font-specification:'Baskerville Old Face, Normal';font-variant-ligatures:normal;font-variant-caps:normal;font-variant-numeric:normal;font-feature-settings:normal;text-align:start;letter-spacing:0px;word-spacing:0px;writing-mode:lr-tb;text-anchor:start;fill:#ff6712;fill-opacity:1;stroke:#ff6712;stroke-width:0.07244496;stroke-opacity:1"
       d="m 20.596811,284.07339 0.664222,-0.12449 v 3.85898 l 0.0023,0.2628 q 0,0.23513 0.01852,0.34579 0.01852,0.10719 0.07175,0.1798 0.0648,0.0934 0.238379,0.14178 v 0.0692 h -1.020634 v -0.0692 q 0.138862,-0.0277 0.199035,-0.0761 0.06017,-0.0519 0.0972,-0.17289 0.02546,-0.0795 0.03472,-0.23859 0.01157,-0.16252 0.01157,-0.46681 v -2.71443 q 0,-0.3527 -0.01157,-0.49793 -0.01157,-0.14523 -0.05092,-0.23514 -0.03934,-0.0968 -0.09489,-0.13831 -0.05554,-0.0415 -0.159691,-0.0519 z"
       inkscape:connector-curvature="0" />
    <path
       id="path1039"
       style="font-style:normal;font-variant:normal;font-weight:normal;font-stretch:normal;font-size:63.99963379px;line-height:1.25;font-family:'Baskerville Old Face';-inkscape-font-specification:'Baskerville Old Face, Normal';font-variant-ligatures:normal;font-variant-caps:normal;font-variant-numeric:normal;font-feature-settings:normal;text-align:start;letter-spacing:0px;word-spacing:0px;writing-mode:lr-tb;text-anchor:start;fill:#ff6712;fill-opacity:1;stroke:#ff6712;stroke-width:0.07244496;stroke-opacity:1"
       d="m 22.207608,286.92613 q -0.0093,0.16943 -0.0093,0.2455 0,0.30084 0.05786,0.58784 0.06017,0.287 0.162006,0.47719 0.104146,0.19364 0.256894,0.30429 0.155062,0.11065 0.324011,0.11065 0.124975,0 0.236065,-0.0622 0.113403,-0.0622 0.187464,-0.17289 0.08332,-0.12103 0.14349,-0.38729 l 0.04629,0.0242 q -0.06017,0.40457 -0.259209,0.61204 -0.19672,0.20402 -0.52536,0.20402 -0.284666,0 -0.488331,-0.13486 -0.203663,-0.13486 -0.34484,-0.41494 -0.196721,-0.39074 -0.196721,-0.96129 0,-0.77802 0.372613,-1.22063 0.27078,-0.32158 0.617935,-0.32158 0.185149,0 0.342526,0.10028 0.157376,0.0968 0.266151,0.28354 0.168949,0.29046 0.168949,0.72616 z m 1.013691,-0.13486 q -0.0162,-0.34579 -0.08563,-0.53251 -0.06249,-0.16944 -0.166634,-0.26626 -0.104146,-0.10028 -0.222179,-0.10028 -0.199035,0 -0.349468,0.25589 -0.14812,0.25588 -0.175892,0.64316 z"
       inkscape:connector-curvature="0" />
    <path
       id="path1041"
       style="font-style:normal;font-variant:normal;font-weight:normal;font-stretch:normal;font-size:63.99963379px;line-height:1.25;font-family:'Baskerville Old Face';-inkscape-font-specification:'Baskerville Old Face, Normal';font-variant-ligatures:normal;font-variant-caps:normal;font-variant-numeric:normal;font-feature-settings:normal;text-align:start;letter-spacing:0px;word-spacing:0px;writing-mode:lr-tb;text-anchor:start;fill:#ff6712;fill-opacity:1;stroke:#ff6712;stroke-width:0.07244496;stroke-opacity:1"
       d="m 24.517342,286.34866 q 0.08332,-0.21784 0.187464,-0.32849 0.192092,-0.20402 0.437414,-0.20402 0.150434,0 0.229123,0.10028 0.07174,0.0899 0.07174,0.2213 0,0.0968 -0.04397,0.15906 -0.04166,0.0623 -0.108775,0.0623 -0.07869,0 -0.136547,-0.0968 l -0.07174,-0.11757 q -0.08563,-0.13486 -0.20135,-0.13486 -0.157376,0 -0.245323,0.30429 -0.08794,0.3043 -0.08794,0.84718 v 0.64662 l 0.0023,0.2628 q 0,0.23513 0.01852,0.34579 0.01852,0.10719 0.07174,0.1798 0.0648,0.0934 0.238379,0.14178 v 0.0692 h -1.020634 v -0.0692 q 0.138862,-0.0277 0.199035,-0.0761 0.06017,-0.0519 0.0972,-0.17289 0.02546,-0.0795 0.03472,-0.23859 0.01157,-0.16252 0.01157,-0.46681 v -0.8541 q 0,-0.35616 -0.01157,-0.49793 -0.01157,-0.14523 -0.05092,-0.23513 -0.03934,-0.0968 -0.09489,-0.13832 -0.05555,-0.0449 -0.159691,-0.0553 v -0.0692 l 0.594791,-0.12448 q 0.03934,0.31466 0.03934,0.53942 z"
       inkscape:connector-curvature="0" />
    <path
       id="path1043"
       style="font-style:normal;font-variant:normal;font-weight:normal;font-stretch:normal;font-size:63.99963379px;line-height:1.25;font-family:'Baskerville Old Face';-inkscape-font-specification:'Baskerville Old Face, Normal';font-variant-ligatures:normal;font-variant-caps:normal;font-variant-numeric:normal;font-feature-settings:normal;text-align:start;letter-spacing:0px;word-spacing:0px;writing-mode:lr-tb;text-anchor:start;fill:#ff6712;fill-opacity:1;stroke:#ff6712;stroke-width:0.07244496;stroke-opacity:1"
       d="m 26.102681,285.86802 h 0.590162 v 0.1314 h -0.590162 v 2.01248 q 0,0.36307 0.08332,0.51868 0.04397,0.0864 0.115718,0.13485 0.07175,0.0484 0.155062,0.0484 0.104147,0 0.173578,-0.0622 0.06943,-0.0657 0.152747,-0.23513 l 0.03472,0.0449 q -0.07637,0.20747 -0.215236,0.30775 -0.136547,0.10028 -0.342526,0.10028 -0.273094,0 -0.39807,-0.15907 -0.06712,-0.083 -0.08795,-0.19709 -0.02083,-0.11757 -0.02083,-0.41841 v -2.09546 h -0.247637 v -0.0553 q 0.150434,-0.0726 0.277724,-0.28008 0.07637,-0.12795 0.122661,-0.25243 0.04629,-0.12794 0.08795,-0.3285 l 0.02314,-0.11411 h 0.08563 z"
       inkscape:connector-curvature="0" />
    <path
       id="path1045"
       style="font-style:normal;font-variant:normal;font-weight:normal;font-stretch:normal;font-size:63.99963379px;line-height:1.25;font-family:'Baskerville Old Face';-inkscape-font-specification:'Baskerville Old Face, Normal';font-variant-ligatures:normal;font-variant-caps:normal;font-variant-numeric:normal;font-feature-settings:normal;text-align:start;letter-spacing:0px;word-spacing:0px;writing-mode:lr-tb;text-anchor:start;fill:#ff6712;fill-opacity:1;stroke:#ff6712;stroke-width:0.07244496;stroke-opacity:1"
       d="m 28.965549,286.49735 v 1.22408 q 0,0.35271 0.02546,0.5256 0.02777,0.16944 0.09952,0.28009 0.06249,0.0968 0.143491,0.14523 0.08332,0.045 0.21755,0.0553 v 0.0795 h -1.478878 v -0.0795 q 0.134233,-0.0104 0.215235,-0.0553 0.08332,-0.0484 0.145805,-0.14523 0.07406,-0.11065 0.09952,-0.28009 0.02546,-0.16943 0.02546,-0.5256 v -2.54844 q 0,-0.35616 -0.02546,-0.5256 -0.02546,-0.16943 -0.09952,-0.28008 -0.06249,-0.10028 -0.145805,-0.14523 -0.08332,-0.045 -0.215235,-0.0553 v -0.0795 h 1.115523 q 0.280038,0 0.367983,0.003 0.358727,0.0242 0.562391,0.14523 0.229122,0.13831 0.354097,0.41494 0.12729,0.27317 0.12729,0.63625 0,0.53942 -0.273095,0.86446 -0.08332,0.0968 -0.185148,0.15907 -0.09952,0.0622 -0.268466,0.11756 0.138861,0.0865 0.205978,0.17981 0.05323,0.0726 0.0972,0.18327 0.04397,0.10719 0.131918,0.38382 0.205979,0.63279 0.310125,0.92671 0.106461,0.29046 0.178206,0.42186 0.05786,0.10719 0.11109,0.14869 0.05554,0.0415 0.150433,0.0553 v 0.0795 h -0.768369 q -0.05786,-0.19018 -0.07406,-0.24205 l -0.162006,-0.5498 q -0.145805,-0.49447 -0.293923,-0.87484 -0.14812,-0.3769 -0.270781,-0.51522 -0.06249,-0.0692 -0.134233,-0.0968 -0.07175,-0.0311 -0.175892,-0.0311 z m 0,-0.0761 h 0.08795 q 0.286981,0 0.409643,-0.0484 0.124975,-0.0484 0.23375,-0.20056 0.243008,-0.34579 0.243008,-0.85755 0,-0.27317 -0.07174,-0.51176 -0.06943,-0.24205 -0.194407,-0.39766 -0.0972,-0.11757 -0.231436,-0.16252 -0.134233,-0.0484 -0.38187,-0.0484 h -0.09489 z"
       inkscape:connector-curvature="0" />
    <path
       id="path1047"
       style="font-style:normal;font-variant:normal;font-weight:normal;font-stretch:normal;font-size:63.99963379px;line-height:1.25;font-family:'Baskerville Old Face';-inkscape-font-specification:'Baskerville Old Face, Normal';font-variant-ligatures:normal;font-variant-caps:normal;font-variant-numeric:normal;font-feature-settings:normal;text-align:start;letter-spacing:0px;word-spacing:0px;writing-mode:lr-tb;text-anchor:start;fill:#ff6712;fill-opacity:1;stroke:#ff6712;stroke-width:0.07244496;stroke-opacity:1"
       d="m 31.073933,287.34799 q 0,-0.56018 0.277724,-0.99933 0.337896,-0.53251 0.807713,-0.53251 0.469815,0 0.805398,0.53251 0.277723,0.44261 0.277723,1.00278 0,0.55326 -0.263837,0.9855 -0.324011,0.53251 -0.819284,0.53251 -0.495275,0 -0.8216,-0.53251 -0.127289,-0.20748 -0.196721,-0.46336 -0.06712,-0.25588 -0.06712,-0.52559 z m 0.421214,-0.038 q 0,0.60167 0.18052,1.02007 0.203665,0.46681 0.497588,0.46681 0.124976,0 0.243009,-0.10373 0.118032,-0.10374 0.203664,-0.29047 0.09026,-0.19364 0.145805,-0.4841 0.05554,-0.29392 0.05554,-0.56709 0,-0.28354 -0.06017,-0.57054 -0.05786,-0.29047 -0.157377,-0.49794 -0.189777,-0.39074 -0.465187,-0.39074 -0.261523,0 -0.451301,0.41149 -0.192092,0.41149 -0.192091,1.00624 z"
       inkscape:connector-curvature="0" />
    <path
       id="path1049"
       style="font-style:normal;font-variant:normal;font-weight:normal;font-stretch:normal;font-size:63.99963379px;line-height:1.25;font-family:'Baskerville Old Face';-inkscape-font-specification:'Baskerville Old Face, Normal';font-variant-ligatures:normal;font-variant-caps:normal;font-variant-numeric:normal;font-feature-settings:normal;text-align:start;letter-spacing:0px;word-spacing:0px;writing-mode:lr-tb;text-anchor:start;fill:#ff6712;fill-opacity:1;stroke:#ff6712;stroke-width:0.07244496;stroke-opacity:1"
       d="m 33.527159,287.34799 q 0,-0.56018 0.277723,-0.99933 0.337897,-0.53251 0.807713,-0.53251 0.469816,0 0.805398,0.53251 0.277724,0.44261 0.277724,1.00278 0,0.55326 -0.263837,0.9855 -0.324012,0.53251 -0.819285,0.53251 -0.495274,0 -0.821599,-0.53251 -0.12729,-0.20748 -0.196721,-0.46336 -0.06712,-0.25588 -0.06712,-0.52559 z m 0.421213,-0.038 q 0,0.60167 0.180521,1.02007 0.203664,0.46681 0.497588,0.46681 0.124976,0 0.243008,-0.10373 0.118033,-0.10374 0.203665,-0.29047 0.09026,-0.19364 0.145804,-0.4841 0.05555,-0.29392 0.05555,-0.56709 0,-0.28354 -0.06017,-0.57054 -0.05786,-0.29047 -0.157377,-0.49794 -0.189778,-0.39074 -0.465188,-0.39074 -0.261523,0 -0.4513,0.41149 -0.192093,0.41149 -0.192093,1.00624 z"
       inkscape:connector-curvature="0" />
    <path
       id="path1051"
       style="font-style:normal;font-variant:normal;font-weight:normal;font-stretch:normal;font-size:63.99963379px;line-height:1.25;font-family:'Baskerville Old Face';-inkscape-font-specification:'Baskerville Old Face, Normal';font-variant-ligatures:normal;font-variant-caps:normal;font-variant-numeric:normal;font-feature-settings:normal;text-align:start;letter-spacing:0px;word-spacing:0px;writing-mode:lr-tb;text-anchor:start;fill:#ff6712;fill-opacity:1;stroke:#ff6712;stroke-width:0.07244496;stroke-opacity:1"
       d="m 36.561288,285.81615 q 0.04166,0.24205 0.05323,0.48064 0.145805,-0.23167 0.326325,-0.35616 0.182835,-0.12448 0.379555,-0.12448 0.217551,0 0.363356,0.16598 0.08795,0.10028 0.201349,0.34924 0.175892,-0.26625 0.354097,-0.39074 0.178207,-0.12448 0.384185,-0.12448 0.277723,0 0.451301,0.22822 0.175891,0.22476 0.175891,0.5913 v 1.17221 l 0.0023,0.2628 q 0,0.23513 0.01851,0.34579 0.01852,0.10719 0.06943,0.1798 0.06712,0.0934 0.240694,0.14178 v 0.0692 h -1.020634 v -0.0692 q 0.138861,-0.0277 0.19672,-0.0761 0.06017,-0.0519 0.09952,-0.17289 0.02546,-0.0795 0.03472,-0.23859 0.01157,-0.16252 0.01157,-0.46336 v -0.66045 q 0,-0.38382 -0.0162,-0.56017 -0.0162,-0.17635 -0.06249,-0.30084 -0.108775,-0.29391 -0.374927,-0.29391 -0.286981,0 -0.416585,0.31812 -0.113404,0.27317 -0.113404,0.85063 v 0.66737 l 0.0023,0.2628 q 0,0.23513 0.01851,0.34579 0.01851,0.10719 0.06943,0.1798 0.0648,0.0934 0.240694,0.14178 v 0.0692 h -1.020634 v -0.0692 q 0.138862,-0.0277 0.196721,-0.0761 0.06017,-0.0519 0.09952,-0.17289 0.02546,-0.0795 0.03472,-0.23859 0.01157,-0.16252 0.01157,-0.46336 v -0.6397 q 0,-0.40457 -0.01851,-0.5913 -0.0162,-0.19018 -0.0648,-0.30775 -0.05092,-0.12448 -0.14349,-0.19364 -0.09257,-0.0726 -0.208293,-0.0726 -0.131918,0 -0.247636,0.0934 -0.115718,0.0934 -0.182835,0.25243 -0.06249,0.14177 -0.09026,0.34232 -0.02546,0.1971 -0.02546,0.51177 v 0.63279 l 0.0023,0.25588 q 0,0.23513 0.01852,0.34579 0.01852,0.10719 0.07174,0.1798 0.0648,0.0934 0.238379,0.14178 v 0.0692 h -1.020634 v -0.0692 q 0.138862,-0.0277 0.199036,-0.0761 0.06017,-0.0519 0.0972,-0.17289 0.02546,-0.0795 0.03472,-0.23859 0.01157,-0.16252 0.01157,-0.46681 v -0.8541 q 0,-0.35616 -0.01157,-0.49793 -0.01157,-0.14523 -0.05092,-0.23513 -0.03934,-0.0968 -0.09489,-0.13832 -0.05554,-0.0449 -0.159692,-0.0553 v -0.0692 z"
       inkscape:connector-curvature="0" />
    <path
       id="path1054"
       style="font-style:normal;font-variant:normal;font-weight:normal;font-stretch:normal;font-size:63.99963379px;line-height:1.25;font-family:'Baskerville Old Face';-inkscape-font-specification:'Baskerville Old Face, Normal';font-variant-ligatures:normal;font-variant-caps:normal;font-variant-numeric:normal;font-feature-settings:normal;text-align:start;letter-spacing:0px;word-spacing:0px;writing-mode:lr-tb;text-anchor:start;fill:#554400;fill-opacity:1;stroke:#554400;stroke-width:0.03523655;stroke-opacity:0"
       d="m 20.337809,289.84784 0.01894,0.56088 -0.02562,0.002 q -0.01448,-0.14277 -0.0479,-0.23625 -0.03342,-0.0935 -0.09691,-0.16486 -0.05235,-0.0595 -0.123646,-0.0833 -0.07129,-0.0255 -0.189367,-0.0255 h -0.25509 v 1.01978 h 0.06684 q 0.101368,0 0.152608,-0.0204 0.05124,-0.0204 0.08355,-0.0731 0.03119,-0.0493 0.04567,-0.11558 0.0156,-0.068 0.02562,-0.19885 l 0.02562,0.002 -0.0045,0.911 h -0.02562 q -0.01003,-0.13087 -0.03008,-0.21076 -0.01894,-0.0799 -0.05347,-0.13597 -0.03342,-0.0544 -0.08689,-0.0799 -0.05347,-0.0255 -0.135899,-0.0255 h -0.06349 v 0.38921 q 0,0.23285 0.0078,0.33993 0.0078,0.10537 0.03008,0.17676 0.03787,0.12237 0.114735,0.18016 0.07797,0.0561 0.204962,0.0561 0.133671,0 0.223899,-0.051 0.09023,-0.0527 0.147039,-0.16147 0.0401,-0.0731 0.06461,-0.16656 0.02562,-0.0935 0.04678,-0.24645 l 0.02562,0.002 -0.01448,0.67645 h -1.328915 v -0.0391 q 0.06349,-0.005 0.102481,-0.0272 0.0401,-0.0221 0.07129,-0.0714 0.03453,-0.0544 0.04678,-0.13767 0.01337,-0.085 0.01337,-0.25834 v -1.25262 q 0,-0.17337 -0.01337,-0.25665 -0.01225,-0.085 -0.04678,-0.13937 -0.03008,-0.0493 -0.07018,-0.0714 -0.03899,-0.0221 -0.103595,-0.0272 v -0.0391 z"
       inkscape:connector-curvature="0" />
    <path
       id="path1056"
       style="font-style:normal;font-variant:normal;font-weight:normal;font-stretch:normal;font-size:63.99963379px;line-height:1.25;font-family:'Baskerville Old Face';-inkscape-font-specification:'Baskerville Old Face, Normal';font-variant-ligatures:normal;font-variant-caps:normal;font-variant-numeric:normal;font-feature-settings:normal;text-align:start;letter-spacing:0px;word-spacing:0px;writing-mode:lr-tb;text-anchor:start;fill:#554400;fill-opacity:1;stroke:#554400;stroke-width:0.03523655;stroke-opacity:0"
       d="m 20.869153,290.78774 v 0.8889 l 0.0011,0.12917 q 0,0.11558 0.0089,0.16996 0.0089,0.0527 0.03453,0.0884 0.03119,0.0459 0.114735,0.0697 v 0.034 H 20.5372 v -0.034 q 0.06684,-0.0136 0.0958,-0.0374 0.02896,-0.0255 0.04678,-0.085 0.01225,-0.0391 0.01671,-0.11728 0.0056,-0.0799 0.0056,-0.22945 v -0.877 h -0.16152 v -0.0646 h 0.16152 v -0.41471 q 0,-0.14956 0.02451,-0.23625 0.02562,-0.0867 0.09023,-0.15976 0.05792,-0.0646 0.141469,-0.10028 0.08466,-0.0374 0.178228,-0.0374 0.08689,0 0.139241,0.0459 0.05235,0.0459 0.05235,0.12237 0,0.051 -0.02228,0.085 -0.02116,0.034 -0.05235,0.034 -0.03008,0 -0.05235,-0.0238 -0.02228,-0.0255 -0.04456,-0.0816 -0.03119,-0.0782 -0.05124,-0.10198 -0.02005,-0.0255 -0.05458,-0.0255 -0.04233,0 -0.0802,0.0272 -0.03787,0.0255 -0.05904,0.068 -0.02339,0.0476 -0.0323,0.12577 -0.0089,0.0765 -0.0089,0.22265 v 0.4504 h 0.219444 v 0.0646 z"
       inkscape:connector-curvature="0" />
    <path
       id="path1058"
       style="font-style:normal;font-variant:normal;font-weight:normal;font-stretch:normal;font-size:63.99963379px;line-height:1.25;font-family:'Baskerville Old Face';-inkscape-font-specification:'Baskerville Old Face, Normal';font-variant-ligatures:normal;font-variant-caps:normal;font-variant-numeric:normal;font-feature-settings:normal;text-align:start;letter-spacing:0px;word-spacing:0px;writing-mode:lr-tb;text-anchor:start;fill:#554400;fill-opacity:1;stroke:#554400;stroke-width:0.03523655;stroke-opacity:0"
       d="m 21.506319,290.78774 v 0.8889 l 0.0011,0.12917 q 0,0.11558 0.0089,0.16996 0.0089,0.0527 0.03453,0.0884 0.03119,0.0459 0.114735,0.0697 v 0.034 h -0.491242 v -0.034 q 0.06684,-0.0136 0.0958,-0.0374 0.02896,-0.0255 0.04678,-0.085 0.01225,-0.0391 0.01671,-0.11728 0.0056,-0.0799 0.0056,-0.22945 v -0.877 h -0.161519 v -0.0646 h 0.161519 v -0.41471 q 0,-0.14956 0.02451,-0.23625 0.02562,-0.0867 0.09023,-0.15976 0.05792,-0.0646 0.141468,-0.10028 0.08466,-0.0374 0.178229,-0.0374 0.08689,0 0.13924,0.0459 0.05235,0.0459 0.05235,0.12237 0,0.051 -0.02228,0.085 -0.02116,0.034 -0.05235,0.034 -0.03008,0 -0.05236,-0.0238 -0.02228,-0.0255 -0.04456,-0.0816 -0.03119,-0.0782 -0.05124,-0.10198 -0.02005,-0.0255 -0.05458,-0.0255 -0.04233,0 -0.0802,0.0272 -0.03787,0.0255 -0.05904,0.068 -0.02339,0.0476 -0.0323,0.12577 -0.0089,0.0765 -0.0089,0.22265 v 0.4504 h 0.219444 v 0.0646 z"
       inkscape:connector-curvature="0" />
    <path
       id="path1060"
       style="font-style:normal;font-variant:normal;font-weight:normal;font-stretch:normal;font-size:63.99963379px;line-height:1.25;font-family:'Baskerville Old Face';-inkscape-font-specification:'Baskerville Old Face, Normal';font-variant-ligatures:normal;font-variant-caps:normal;font-variant-numeric:normal;font-feature-settings:normal;text-align:start;letter-spacing:0px;word-spacing:0px;writing-mode:lr-tb;text-anchor:start;fill:#554400;fill-opacity:1;stroke:#554400;stroke-width:0.03523655;stroke-opacity:0"
       d="m 21.823788,290.75544 0.319697,-0.0612 v 0.98238 l 0.0011,0.12917 q 0,0.11558 0.0089,0.16996 0.0089,0.0527 0.03453,0.0884 0.03119,0.0459 0.114734,0.0697 v 0.034 h -0.491242 v -0.034 q 0.06684,-0.0136 0.0958,-0.0374 0.02896,-0.0255 0.04678,-0.085 0.01225,-0.0391 0.01671,-0.11728 0.0056,-0.0799 0.0056,-0.22945 v -0.4198 q 0,-0.17507 -0.0056,-0.24475 -0.0056,-0.0714 -0.02451,-0.11557 -0.01894,-0.0476 -0.04567,-0.068 -0.02673,-0.0221 -0.07686,-0.0272 z m 0.231697,-0.66795 q -0.04344,0 -0.0724,-0.0425 -0.02785,-0.0425 -0.02785,-0.10708 0,-0.0629 0.02896,-0.10537 0.02896,-0.0442 0.07129,-0.0442 0.04233,0 0.07129,0.0442 0.02896,0.0425 0.02896,0.10537 0,0.0646 -0.02896,0.10708 -0.02785,0.0425 -0.07129,0.0425 z"
       inkscape:connector-curvature="0" />
    <path
       id="path1062"
       style="font-style:normal;font-variant:normal;font-weight:normal;font-stretch:normal;font-size:63.99963379px;line-height:1.25;font-family:'Baskerville Old Face';-inkscape-font-specification:'Baskerville Old Face, Normal';font-variant-ligatures:normal;font-variant-caps:normal;font-variant-numeric:normal;font-feature-settings:normal;text-align:start;letter-spacing:0px;word-spacing:0px;writing-mode:lr-tb;text-anchor:start;fill:#554400;fill-opacity:1;stroke:#554400;stroke-width:0.03523655;stroke-opacity:0"
       d="m 23.19726,291.8466 0.02228,0.0119 q -0.03899,0.18016 -0.119191,0.26004 -0.0802,0.0799 -0.220557,0.0799 -0.225013,0 -0.353115,-0.20396 -0.12476,-0.20055 -0.12476,-0.50649 0,-0.14956 0.03453,-0.29573 0.03453,-0.14617 0.09468,-0.24985 0.06795,-0.11897 0.165975,-0.18186 0.09914,-0.0629 0.216102,-0.0629 0.161519,0 0.252861,0.11047 0.0557,0.068 0.0557,0.14957 0,0.0544 -0.02339,0.0918 -0.02339,0.0357 -0.05681,0.0357 -0.07241,0 -0.106937,-0.16146 -0.0156,-0.0748 -0.02562,-0.10198 -0.0089,-0.0272 -0.02673,-0.0476 -0.03453,-0.0391 -0.08466,-0.0391 -0.06572,0 -0.121418,0.0561 -0.04901,0.0493 -0.08354,0.12407 -0.03342,0.0731 -0.05904,0.18526 -0.03899,0.17166 -0.03899,0.33652 0,0.15127 0.03565,0.29574 0.03565,0.14447 0.09691,0.24135 0.0958,0.15296 0.225013,0.15296 0.106937,0 0.177114,-0.10368 0.03565,-0.0544 0.06795,-0.17676 z"
       inkscape:connector-curvature="0" />
    <path
       id="path1064"
       style="font-style:normal;font-variant:normal;font-weight:normal;font-stretch:normal;font-size:63.99963379px;line-height:1.25;font-family:'Baskerville Old Face';-inkscape-font-specification:'Baskerville Old Face, Normal';font-variant-ligatures:normal;font-variant-caps:normal;font-variant-numeric:normal;font-feature-settings:normal;text-align:start;letter-spacing:0px;word-spacing:0px;writing-mode:lr-tb;text-anchor:start;fill:#554400;fill-opacity:1;stroke:#554400;stroke-width:0.03523655;stroke-opacity:0"
       d="m 23.325362,290.75544 0.319697,-0.0612 v 0.98238 l 0.0011,0.12917 q 0,0.11558 0.0089,0.16996 0.0089,0.0527 0.03453,0.0884 0.03119,0.0459 0.114735,0.0697 v 0.034 h -0.491243 v -0.034 q 0.06684,-0.0136 0.0958,-0.0374 0.02896,-0.0255 0.04678,-0.085 0.01225,-0.0391 0.01671,-0.11728 0.0056,-0.0799 0.0056,-0.22945 v -0.4198 q 0,-0.17507 -0.0056,-0.24475 -0.0056,-0.0714 -0.02451,-0.11557 -0.01894,-0.0476 -0.04567,-0.068 -0.02674,-0.0221 -0.07686,-0.0272 z m 0.231697,-0.66795 q -0.04344,0 -0.07241,-0.0425 -0.02785,-0.0425 -0.02785,-0.10708 0,-0.0629 0.02896,-0.10537 0.02896,-0.0442 0.07129,-0.0442 0.04233,0 0.07129,0.0442 0.02896,0.0425 0.02896,0.10537 0,0.0646 -0.02896,0.10708 -0.02785,0.0425 -0.07129,0.0425 z"
       inkscape:connector-curvature="0" />
    <path
       id="path1066"
       style="font-style:normal;font-variant:normal;font-weight:normal;font-stretch:normal;font-size:63.99963379px;line-height:1.25;font-family:'Baskerville Old Face';-inkscape-font-specification:'Baskerville Old Face, Normal';font-variant-ligatures:normal;font-variant-caps:normal;font-variant-numeric:normal;font-feature-settings:normal;text-align:start;letter-spacing:0px;word-spacing:0px;writing-mode:lr-tb;text-anchor:start;fill:#554400;fill-opacity:1;stroke:#554400;stroke-width:0.03523655;stroke-opacity:0"
       d="m 24.100655,291.24324 q -0.0045,0.0833 -0.0045,0.12067 0,0.14787 0.02785,0.28894 0.02896,0.14107 0.07797,0.23454 0.05013,0.0952 0.123646,0.14957 0.07463,0.0544 0.15595,0.0544 0.06015,0 0.113621,-0.0306 0.05458,-0.0306 0.09023,-0.085 0.0401,-0.0595 0.06906,-0.19035 l 0.02228,0.0119 q -0.02896,0.19886 -0.12476,0.30084 -0.09468,0.10028 -0.252862,0.10028 -0.137012,0 -0.235038,-0.0663 -0.09803,-0.0663 -0.165975,-0.20395 -0.09468,-0.19206 -0.09468,-0.4725 0,-0.38242 0.179342,-0.59997 0.130329,-0.15806 0.297419,-0.15806 0.08911,0 0.164861,0.0493 0.07575,0.0476 0.128101,0.13937 0.08132,0.14276 0.08132,0.35692 z m 0.4879,-0.0663 q -0.0078,-0.16996 -0.04122,-0.26174 -0.03008,-0.0833 -0.0802,-0.13087 -0.05013,-0.0493 -0.106937,-0.0493 -0.0958,0 -0.168203,0.12577 -0.07129,0.12577 -0.08466,0.31613 z"
       inkscape:connector-curvature="0" />
    <path
       id="path1068"
       style="font-style:normal;font-variant:normal;font-weight:normal;font-stretch:normal;font-size:63.99963379px;line-height:1.25;font-family:'Baskerville Old Face';-inkscape-font-specification:'Baskerville Old Face, Normal';font-variant-ligatures:normal;font-variant-caps:normal;font-variant-numeric:normal;font-feature-settings:normal;text-align:start;letter-spacing:0px;word-spacing:0px;writing-mode:lr-tb;text-anchor:start;fill:#554400;fill-opacity:1;stroke:#554400;stroke-width:0.03523655;stroke-opacity:0"
       d="m 25.21124,290.69426 q 0.0156,0.0986 0.0156,0.18356 v 0.0272 q 0.138127,-0.20735 0.328609,-0.20735 0.142582,0 0.229469,0.10197 0.08577,0.10028 0.08577,0.28554 v 0.72064 q 0,0.11558 0.0089,0.16996 0.0089,0.0527 0.03453,0.0884 0.03119,0.0459 0.114735,0.0697 v 0.034 h -0.491242 v -0.034 q 0.06683,-0.0136 0.0958,-0.0374 0.02896,-0.0255 0.04679,-0.085 0.01225,-0.0391 0.01671,-0.11728 0.0056,-0.0799 0.0056,-0.22775 v -0.36032 q 0,-0.18526 -0.0089,-0.27194 -0.0078,-0.0867 -0.03119,-0.13937 -0.02562,-0.0595 -0.07352,-0.0918 -0.0479,-0.034 -0.105823,-0.034 -0.06238,0 -0.116962,0.0374 -0.05347,0.0374 -0.08466,0.10198 -0.03342,0.068 -0.04456,0.15467 -0.01003,0.085 -0.01003,0.28383 v 0.33313 l 0.0011,0.12577 q 0,0.11558 0.0089,0.16996 0.0089,0.0527 0.03453,0.0884 0.03119,0.0459 0.114735,0.0697 v 0.034 h -0.491242 v -0.034 q 0.06684,-0.0136 0.0958,-0.0374 0.02896,-0.0255 0.04678,-0.085 0.01225,-0.0391 0.01671,-0.11728 0.0056,-0.0799 0.0056,-0.22945 v -0.4198 q 0,-0.17507 -0.0056,-0.24475 -0.0056,-0.0714 -0.02451,-0.11557 -0.01894,-0.0476 -0.04567,-0.068 -0.02673,-0.0221 -0.07686,-0.0272 v -0.034 z"
       inkscape:connector-curvature="0" />
    <path
       id="path1070"
       style="font-style:normal;font-variant:normal;font-weight:normal;font-stretch:normal;font-size:63.99963379px;line-height:1.25;font-family:'Baskerville Old Face';-inkscape-font-specification:'Baskerville Old Face, Normal';font-variant-ligatures:normal;font-variant-caps:normal;font-variant-numeric:normal;font-feature-settings:normal;text-align:start;letter-spacing:0px;word-spacing:0px;writing-mode:lr-tb;text-anchor:start;fill:#554400;fill-opacity:1;stroke:#554400;stroke-width:0.03523655;stroke-opacity:0"
       d="m 26.917776,291.8466 0.02228,0.0119 q -0.03899,0.18016 -0.11919,0.26004 -0.0802,0.0799 -0.220558,0.0799 -0.225013,0 -0.353115,-0.20396 -0.12476,-0.20055 -0.12476,-0.50649 0,-0.14956 0.03453,-0.29573 0.03453,-0.14617 0.09468,-0.24985 0.06795,-0.11897 0.165975,-0.18186 0.09914,-0.0629 0.216102,-0.0629 0.161519,0 0.252861,0.11047 0.0557,0.068 0.0557,0.14957 0,0.0544 -0.02339,0.0918 -0.02339,0.0357 -0.05681,0.0357 -0.0724,0 -0.106937,-0.16146 -0.0156,-0.0748 -0.02562,-0.10198 -0.0089,-0.0272 -0.02673,-0.0476 -0.03453,-0.0391 -0.08466,-0.0391 -0.06572,0 -0.121418,0.0561 -0.04901,0.0493 -0.08354,0.12407 -0.03342,0.0731 -0.05904,0.18526 -0.03899,0.17166 -0.03899,0.33652 0,0.15127 0.03564,0.29574 0.03565,0.14447 0.09691,0.24135 0.0958,0.15296 0.225013,0.15296 0.106937,0 0.177115,-0.10368 0.03564,-0.0544 0.06795,-0.17676 z"
       inkscape:connector-curvature="0" />
    <path
       id="path1072"
       style="font-style:normal;font-variant:normal;font-weight:normal;font-stretch:normal;font-size:63.99963379px;line-height:1.25;font-family:'Baskerville Old Face';-inkscape-font-specification:'Baskerville Old Face, Normal';font-variant-ligatures:normal;font-variant-caps:normal;font-variant-numeric:normal;font-feature-settings:normal;text-align:start;letter-spacing:0px;word-spacing:0px;writing-mode:lr-tb;text-anchor:start;fill:#554400;fill-opacity:1;stroke:#554400;stroke-width:0.03523655;stroke-opacity:0"
       d="m 27.000207,290.72315 h 0.43109 v 0.0357 q -0.04567,0.0102 -0.06572,0.0272 -0.04344,0.0374 -0.04344,0.11557 0,0.068 0.04567,0.24305 l 0.18714,0.72914 0.162633,-0.61357 q 0.06015,-0.22945 0.06015,-0.32463 0,-0.0765 -0.02785,-0.12067 -0.02785,-0.0459 -0.08132,-0.0561 v -0.0357 h 0.318583 v 0.0357 q -0.0479,0.0204 -0.07129,0.0425 -0.02228,0.0221 -0.04344,0.0697 -0.0323,0.0748 -0.102482,0.33482 l -0.323038,1.19654 q -0.05792,0.21415 -0.09357,0.27874 -0.06015,0.10708 -0.152609,0.10708 -0.05904,0 -0.0958,-0.0357 -0.03565,-0.034 -0.03565,-0.0901 0,-0.0442 0.02116,-0.0714 0.02116,-0.0255 0.0557,-0.0255 0.02896,0 0.06684,0.0238 0.03676,0.0221 0.04678,0.0272 0.01114,0.005 0.02562,0.005 0.06906,0 0.112507,-0.15807 l 0.03453,-0.12917 q 0.02228,-0.0816 0.02228,-0.12577 0,-0.0629 -0.04233,-0.21925 l -0.231697,-0.84811 -0.03342,-0.12238 q -0.03008,-0.10877 -0.04678,-0.15466 -0.01671,-0.0459 -0.03342,-0.0663 -0.02785,-0.0323 -0.06684,-0.0391 z"
       inkscape:connector-curvature="0" />
    <path
       id="path1074"
       style="font-style:normal;font-variant:normal;font-weight:normal;font-stretch:normal;font-size:63.99963379px;line-height:1.25;font-family:'Baskerville Old Face';-inkscape-font-specification:'Baskerville Old Face, Normal';font-variant-ligatures:normal;font-variant-caps:normal;font-variant-numeric:normal;font-feature-settings:normal;text-align:start;letter-spacing:0px;word-spacing:0px;writing-mode:lr-tb;text-anchor:start;fill:#554400;fill-opacity:1;stroke:#554400;stroke-width:0.03523655;stroke-opacity:0"
       d="m 29.509884,292.00297 0.01894,0.017 q -0.0401,0.17846 -0.183798,0.17846 -0.07909,0 -0.131443,-0.0595 -0.03453,-0.0391 -0.07129,-0.13597 -0.07463,0.10198 -0.112506,0.13427 -0.0724,0.0612 -0.168203,0.0612 -0.122532,0 -0.194937,-0.0901 -0.07129,-0.0901 -0.07129,-0.24305 0,-0.14107 0.05904,-0.23625 0.03342,-0.0527 0.07686,-0.0833 0.04344,-0.0323 0.125874,-0.0646 0.09691,-0.0374 0.142583,-0.0629 0.04678,-0.0255 0.07797,-0.0612 0.03565,-0.0391 0.04901,-0.0918 0.01337,-0.0527 0.01337,-0.14617 0,-0.19885 -0.04901,-0.29063 -0.02228,-0.0425 -0.05792,-0.068 -0.03453,-0.0255 -0.07241,-0.0255 -0.04567,0 -0.08132,0.0357 -0.03565,0.0357 -0.05347,0.0986 l -0.02785,0.0986 q -0.02228,0.0799 -0.0802,0.0799 -0.03787,0 -0.06349,-0.0374 -0.02562,-0.0391 -0.02562,-0.0969 0,-0.0867 0.0802,-0.14617 0.04344,-0.0306 0.106937,-0.0493 0.06461,-0.0204 0.125874,-0.0204 0.06906,0 0.143696,0.0272 0.07463,0.0272 0.12476,0.0697 0.0724,0.0629 0.09023,0.16316 0.0089,0.051 0.0089,0.17166 v 0.62886 q 0,0.15977 0.0089,0.21755 0.01894,0.12068 0.09134,0.12068 0.03453,0 0.05347,-0.0187 0.02005,-0.0187 0.04678,-0.0748 z m -0.367596,-0.66965 q -0.06015,0.0765 -0.132557,0.13427 -0.08132,0.0663 -0.112507,0.10027 -0.03119,0.034 -0.05681,0.0816 -0.05235,0.0986 -0.05235,0.22945 0,0.11217 0.0401,0.18526 0.04122,0.0731 0.103595,0.0731 0.05458,0 0.102482,-0.051 0.04901,-0.0527 0.07352,-0.13937 0.03453,-0.11387 0.03453,-0.32973 z"
       inkscape:connector-curvature="0" />
    <path
       id="path1076"
       style="font-style:normal;font-variant:normal;font-weight:normal;font-stretch:normal;font-size:63.99963379px;line-height:1.25;font-family:'Baskerville Old Face';-inkscape-font-specification:'Baskerville Old Face, Normal';font-variant-ligatures:normal;font-variant-caps:normal;font-variant-numeric:normal;font-feature-settings:normal;text-align:start;letter-spacing:0px;word-spacing:0px;writing-mode:lr-tb;text-anchor:start;fill:#554400;fill-opacity:1;stroke:#554400;stroke-width:0.03523655;stroke-opacity:0"
       d="m 29.849632,290.69426 q 0.0156,0.0986 0.0156,0.18356 v 0.0272 q 0.138127,-0.20735 0.328609,-0.20735 0.142583,0 0.229469,0.10197 0.08577,0.10028 0.08577,0.28554 v 0.72064 q 0,0.11558 0.0089,0.16996 0.0089,0.0527 0.03453,0.0884 0.03119,0.0459 0.114735,0.0697 v 0.034 h -0.491242 v -0.034 q 0.06684,-0.0136 0.0958,-0.0374 0.02896,-0.0255 0.04678,-0.085 0.01225,-0.0391 0.01671,-0.11728 0.0056,-0.0799 0.0056,-0.22775 v -0.36032 q 0,-0.18526 -0.0089,-0.27194 -0.0078,-0.0867 -0.03119,-0.13937 -0.02562,-0.0595 -0.07352,-0.0918 -0.0479,-0.034 -0.105823,-0.034 -0.06238,0 -0.116963,0.0374 -0.05347,0.0374 -0.08466,0.10198 -0.03342,0.068 -0.04456,0.15467 -0.01003,0.085 -0.01003,0.28383 v 0.33313 l 0.0011,0.12577 q 0,0.11558 0.0089,0.16996 0.0089,0.0527 0.03453,0.0884 0.03119,0.0459 0.114735,0.0697 v 0.034 H 29.53327 v -0.034 q 0.06684,-0.0136 0.0958,-0.0374 0.02896,-0.0255 0.04678,-0.085 0.01225,-0.0391 0.01671,-0.11728 0.0056,-0.0799 0.0056,-0.22945 v -0.4198 q 0,-0.17507 -0.0056,-0.24475 -0.0056,-0.0714 -0.02451,-0.11557 -0.01894,-0.0476 -0.04567,-0.068 -0.02673,-0.0221 -0.07686,-0.0272 v -0.034 z"
       inkscape:connector-curvature="0" />
    <path
       id="path1078"
       style="font-style:normal;font-variant:normal;font-weight:normal;font-stretch:normal;font-size:63.99963379px;line-height:1.25;font-family:'Baskerville Old Face';-inkscape-font-specification:'Baskerville Old Face, Normal';font-variant-ligatures:normal;font-variant-caps:normal;font-variant-numeric:normal;font-feature-settings:normal;text-align:start;letter-spacing:0px;word-spacing:0px;writing-mode:lr-tb;text-anchor:start;fill:#554400;fill-opacity:1;stroke:#554400;stroke-width:0.03523655;stroke-opacity:0"
       d="m 31.532776,292.22222 q -0.01114,-0.0833 -0.01114,-0.17676 -0.08243,0.0816 -0.15595,0.11727 -0.0724,0.0357 -0.15595,0.0357 -0.169316,0 -0.28962,-0.15467 -0.07686,-0.0986 -0.118077,-0.24645 -0.04122,-0.14956 -0.04122,-0.32632 0,-0.18696 0.04456,-0.34503 0.04456,-0.15976 0.12476,-0.26514 0.126988,-0.16316 0.301874,-0.16316 0.08466,0 0.144811,0.0374 0.06015,0.0374 0.140354,0.13597 v -0.63056 q 0,-0.18526 -0.0401,-0.26684 -0.0401,-0.0816 -0.132557,-0.0816 v -0.0408 l 0.339748,-0.0663 v 1.96986 q 0,0.19206 0.0401,0.27364 0.0401,0.0816 0.132557,0.0816 v 0.0425 z m -0.01559,-0.78863 q 0,-0.23624 -0.01337,-0.35352 -0.01337,-0.11897 -0.0479,-0.19375 -0.03008,-0.0646 -0.08132,-0.10368 -0.05013,-0.0391 -0.103596,-0.0391 -0.11919,0 -0.206076,0.16996 -0.05235,0.10198 -0.08243,0.24305 -0.02896,0.14106 -0.02896,0.29063 0,0.14617 0.02785,0.28724 0.02785,0.13937 0.07575,0.23965 0.08354,0.17336 0.204962,0.17336 0.05793,0 0.110279,-0.0442 0.05235,-0.0442 0.08466,-0.12238 0.03342,-0.0816 0.04678,-0.20055 0.01337,-0.12068 0.01337,-0.34673 z"
       inkscape:connector-curvature="0" />
    <path
       id="path1080"
       style="font-style:normal;font-variant:normal;font-weight:normal;font-stretch:normal;font-size:63.99963379px;line-height:1.25;font-family:'Baskerville Old Face';-inkscape-font-specification:'Baskerville Old Face, Normal';font-variant-ligatures:normal;font-variant-caps:normal;font-variant-numeric:normal;font-feature-settings:normal;text-align:start;letter-spacing:0px;word-spacing:0px;writing-mode:lr-tb;text-anchor:start;fill:#554400;fill-opacity:1;stroke:#554400;stroke-width:0.03523655;stroke-opacity:0"
       d="m 33.43982,292.00297 0.01894,0.017 q -0.0401,0.17846 -0.183798,0.17846 -0.07909,0 -0.131444,-0.0595 -0.03453,-0.0391 -0.07129,-0.13597 -0.07463,0.10198 -0.112507,0.13427 -0.0724,0.0612 -0.168203,0.0612 -0.122532,0 -0.194937,-0.0901 -0.07129,-0.0901 -0.07129,-0.24305 0,-0.14107 0.05904,-0.23625 0.03342,-0.0527 0.07686,-0.0833 0.04344,-0.0323 0.125874,-0.0646 0.09691,-0.0374 0.142582,-0.0629 0.04678,-0.0255 0.07798,-0.0612 0.03565,-0.0391 0.04901,-0.0918 0.01337,-0.0527 0.01337,-0.14617 0,-0.19885 -0.04901,-0.29063 -0.02228,-0.0425 -0.05792,-0.068 -0.03453,-0.0255 -0.07241,-0.0255 -0.04567,0 -0.08132,0.0357 -0.03565,0.0357 -0.05347,0.0986 l -0.02785,0.0986 q -0.02228,0.0799 -0.0802,0.0799 -0.03787,0 -0.06349,-0.0374 -0.02562,-0.0391 -0.02562,-0.0969 0,-0.0867 0.0802,-0.14617 0.04344,-0.0306 0.106937,-0.0493 0.06461,-0.0204 0.125874,-0.0204 0.06906,0 0.143697,0.0272 0.07463,0.0272 0.124759,0.0697 0.07241,0.0629 0.09023,0.16316 0.0089,0.051 0.0089,0.17166 v 0.62886 q 0,0.15977 0.0089,0.21755 0.01894,0.12068 0.09134,0.12068 0.03453,0 0.05347,-0.0187 0.02005,-0.0187 0.04678,-0.0748 z m -0.367596,-0.66965 q -0.06015,0.0765 -0.132558,0.13427 -0.08132,0.0663 -0.112506,0.10027 -0.03119,0.034 -0.05681,0.0816 -0.05235,0.0986 -0.05235,0.22945 0,0.11217 0.0401,0.18526 0.04122,0.0731 0.103596,0.0731 0.05458,0 0.102481,-0.051 0.04901,-0.0527 0.07352,-0.13937 0.03453,-0.11387 0.03453,-0.32973 z"
       inkscape:connector-curvature="0" />
    <path
       id="path1082"
       style="font-style:normal;font-variant:normal;font-weight:normal;font-stretch:normal;font-size:63.99963379px;line-height:1.25;font-family:'Baskerville Old Face';-inkscape-font-specification:'Baskerville Old Face, Normal';font-variant-ligatures:normal;font-variant-caps:normal;font-variant-numeric:normal;font-feature-settings:normal;text-align:start;letter-spacing:0px;word-spacing:0px;writing-mode:lr-tb;text-anchor:start;fill:#554400;fill-opacity:1;stroke:#554400;stroke-width:0.03523655;stroke-opacity:0"
       d="m 33.741693,292.3123 -0.02005,0.009 q -0.01894,-0.0476 -0.03787,-0.0663 -0.01894,-0.0187 -0.04678,-0.0187 -0.04678,0 -0.07686,0.0544 -0.02896,0.0544 -0.02896,0.14106 0,0.13767 0.09023,0.22605 0.09023,0.0884 0.230583,0.0884 0.149266,0 0.240608,-0.0986 0.09246,-0.0969 0.09246,-0.25325 0,-0.12577 -0.06127,-0.19375 -0.06127,-0.0663 -0.174886,-0.0663 h -0.177115 q -0.109165,0 -0.176,-0.0782 -0.06906,-0.0816 -0.06906,-0.19546 0,-0.12067 0.07352,-0.19036 0.03787,-0.034 0.138127,-0.0731 -0.09691,-0.068 -0.15038,-0.17846 -0.05347,-0.11218 -0.05347,-0.24645 0,-0.17166 0.08354,-0.30593 0.04901,-0.0799 0.115849,-0.12407 0.06683,-0.0442 0.137013,-0.0442 0.106937,0 0.218329,0.11557 0.05235,-0.0629 0.09357,-0.0884 0.04233,-0.0272 0.09134,-0.0272 0.05458,0 0.088,0.0357 0.0401,0.0442 0.0401,0.10877 0,0.0391 -0.01559,0.0663 -0.01559,0.0255 -0.03899,0.0255 -0.03565,0 -0.06461,-0.0578 l -0.02562,-0.051 q -0.02116,-0.0408 -0.06015,-0.0408 -0.04122,0 -0.08689,0.0629 0.09023,0.16827 0.09023,0.34673 0,0.22265 -0.129215,0.35182 -0.06461,0.0646 -0.139241,0.0867 -0.02228,0.005 -0.141469,0.017 -0.163747,0.0153 -0.163747,0.13937 0,0.10877 0.139241,0.10877 h 0.183798 q 0.09691,0 0.163747,0.0272 0.06683,0.0255 0.116962,0.0816 0.09803,0.11047 0.09803,0.31103 0,0.22095 -0.113621,0.34502 -0.116962,0.12748 -0.343089,0.12748 -0.242836,0 -0.344204,-0.14957 -0.06461,-0.0969 -0.06461,-0.24135 0,-0.11387 0.0479,-0.19376 0.0479,-0.0782 0.116963,-0.0782 0.05013,0 0.08132,0.0459 0.0323,0.0459 0.0323,0.12068 z m -0.04901,-1.12855 q 0,0.18356 0.05013,0.29913 0.05124,0.11558 0.13033,0.11558 0.0802,0 0.124759,-0.11388 0.04456,-0.11557 0.04456,-0.31953 0,-0.21075 -0.05792,-0.33652 -0.04233,-0.0935 -0.109164,-0.0935 -0.0802,0 -0.129216,0.12237 -0.02451,0.0612 -0.03899,0.14957 -0.01448,0.0884 -0.01448,0.17676 z"
       inkscape:connector-curvature="0" />
    <path
       id="path1084"
       style="font-style:normal;font-variant:normal;font-weight:normal;font-stretch:normal;font-size:63.99963379px;line-height:1.25;font-family:'Baskerville Old Face';-inkscape-font-specification:'Baskerville Old Face, Normal';font-variant-ligatures:normal;font-variant-caps:normal;font-variant-numeric:normal;font-feature-settings:normal;text-align:start;letter-spacing:0px;word-spacing:0px;writing-mode:lr-tb;text-anchor:start;fill:#554400;fill-opacity:1;stroke:#554400;stroke-width:0.03523655;stroke-opacity:0"
       d="m 34.41562,290.75544 0.319697,-0.0612 v 0.98238 l 0.0011,0.12917 q 0,0.11558 0.0089,0.16996 0.0089,0.0527 0.03453,0.0884 0.03119,0.0459 0.114735,0.0697 v 0.034 H 34.40334 v -0.034 q 0.06684,-0.0136 0.0958,-0.0374 0.02896,-0.0255 0.04678,-0.085 0.01225,-0.0391 0.01671,-0.11728 0.0056,-0.0799 0.0056,-0.22945 v -0.4198 q 0,-0.17507 -0.0056,-0.24475 -0.0056,-0.0714 -0.02451,-0.11557 -0.01894,-0.0476 -0.04567,-0.068 -0.02673,-0.0221 -0.07686,-0.0272 z m 0.231697,-0.66795 q -0.04344,0 -0.07241,-0.0425 -0.02785,-0.0425 -0.02785,-0.10708 0,-0.0629 0.02896,-0.10537 0.02896,-0.0442 0.07129,-0.0442 0.04233,0 0.07129,0.0442 0.02896,0.0425 0.02896,0.10537 0,0.0646 -0.02896,0.10708 -0.02785,0.0425 -0.07129,0.0425 z"
       inkscape:connector-curvature="0" />
    <path
       id="path1086"
       style="font-style:normal;font-variant:normal;font-weight:normal;font-stretch:normal;font-size:63.99963379px;line-height:1.25;font-family:'Baskerville Old Face';-inkscape-font-specification:'Baskerville Old Face, Normal';font-variant-ligatures:normal;font-variant-caps:normal;font-variant-numeric:normal;font-feature-settings:normal;text-align:start;letter-spacing:0px;word-spacing:0px;writing-mode:lr-tb;text-anchor:start;fill:#554400;fill-opacity:1;stroke:#554400;stroke-width:0.03523655;stroke-opacity:0"
       d="m 34.968128,289.84105 0.319697,-0.0612 v 1.89678 l 0.0011,0.12917 q 0,0.11558 0.0089,0.16996 0.0089,0.0527 0.03453,0.0884 0.03119,0.0459 0.114735,0.0697 v 0.034 h -0.491242 v -0.034 q 0.06684,-0.0136 0.0958,-0.0374 0.02896,-0.0255 0.04679,-0.085 0.01225,-0.0391 0.01671,-0.11728 0.0056,-0.0799 0.0056,-0.22945 v -1.3342 q 0,-0.17336 -0.0056,-0.24475 -0.0056,-0.0714 -0.02451,-0.11557 -0.01894,-0.0476 -0.04567,-0.068 -0.02673,-0.0204 -0.07686,-0.0255 z"
       inkscape:connector-curvature="0" />
    <path
       id="path1088"
       style="font-style:normal;font-variant:normal;font-weight:normal;font-stretch:normal;font-size:63.99963379px;line-height:1.25;font-family:'Baskerville Old Face';-inkscape-font-specification:'Baskerville Old Face, Normal';font-variant-ligatures:normal;font-variant-caps:normal;font-variant-numeric:normal;font-feature-settings:normal;text-align:start;letter-spacing:0px;word-spacing:0px;writing-mode:lr-tb;text-anchor:start;fill:#554400;fill-opacity:1;stroke:#554400;stroke-width:0.03523655;stroke-opacity:0"
       d="m 35.520636,290.75544 0.319697,-0.0612 v 0.98238 l 0.0011,0.12917 q 0,0.11558 0.0089,0.16996 0.0089,0.0527 0.03453,0.0884 0.03119,0.0459 0.114734,0.0697 v 0.034 h -0.49124 v -0.034 q 0.06684,-0.0136 0.0958,-0.0374 0.02896,-0.0255 0.04678,-0.085 0.01225,-0.0391 0.01671,-0.11728 0.0056,-0.0799 0.0056,-0.22945 v -0.4198 q 0,-0.17507 -0.0056,-0.24475 -0.0056,-0.0714 -0.02451,-0.11557 -0.01894,-0.0476 -0.04567,-0.068 -0.02673,-0.0221 -0.07686,-0.0272 z m 0.231696,-0.66795 q -0.04344,0 -0.07241,-0.0425 -0.02785,-0.0425 -0.02785,-0.10708 0,-0.0629 0.02896,-0.10537 0.02896,-0.0442 0.07129,-0.0442 0.04233,0 0.07129,0.0442 0.02896,0.0425 0.02896,0.10537 0,0.0646 -0.02896,0.10708 -0.02785,0.0425 -0.07129,0.0425 z"
       inkscape:connector-curvature="0" />
    <path
       id="path1090"
       style="font-style:normal;font-variant:normal;font-weight:normal;font-stretch:normal;font-size:63.99963379px;line-height:1.25;font-family:'Baskerville Old Face';-inkscape-font-specification:'Baskerville Old Face, Normal';font-variant-ligatures:normal;font-variant-caps:normal;font-variant-numeric:normal;font-feature-settings:normal;text-align:start;letter-spacing:0px;word-spacing:0px;writing-mode:lr-tb;text-anchor:start;fill:#554400;fill-opacity:1;stroke:#554400;stroke-width:0.03523655;stroke-opacity:0"
       d="m 36.348283,290.72315 h 0.284052 v 0.0646 h -0.284052 v 0.98918 q 0,0.17846 0.0401,0.25494 0.02116,0.0425 0.0557,0.0663 0.03453,0.0238 0.07463,0.0238 0.05013,0 0.08354,-0.0306 0.03342,-0.0323 0.07352,-0.11558 l 0.01671,0.0221 q -0.03676,0.10198 -0.103596,0.15127 -0.06572,0.0493 -0.164861,0.0493 -0.131443,0 -0.191595,-0.0782 -0.0323,-0.0408 -0.04233,-0.0969 -0.01003,-0.0578 -0.01003,-0.20565 v -1.02997 h -0.11919 v -0.0272 q 0.0724,-0.0357 0.133671,-0.13767 0.03676,-0.0629 0.05904,-0.12407 0.02228,-0.0629 0.04233,-0.16146 l 0.01114,-0.0561 h 0.04122 z"
       inkscape:connector-curvature="0" />
    <path
       id="path1092"
       style="font-style:normal;font-variant:normal;font-weight:normal;font-stretch:normal;font-size:63.99963379px;line-height:1.25;font-family:'Baskerville Old Face';-inkscape-font-specification:'Baskerville Old Face, Normal';font-variant-ligatures:normal;font-variant-caps:normal;font-variant-numeric:normal;font-feature-settings:normal;text-align:start;letter-spacing:0px;word-spacing:0px;writing-mode:lr-tb;text-anchor:start;fill:#554400;fill-opacity:1;stroke:#554400;stroke-width:0.03523655;stroke-opacity:0"
       d="m 36.620082,290.72315 h 0.431089 v 0.0357 q -0.04567,0.0102 -0.06572,0.0272 -0.04344,0.0374 -0.04344,0.11557 0,0.068 0.04567,0.24305 l 0.18714,0.72914 0.162634,-0.61357 q 0.06015,-0.22945 0.06015,-0.32463 0,-0.0765 -0.02785,-0.12067 -0.02785,-0.0459 -0.08132,-0.0561 v -0.0357 h 0.318583 v 0.0357 q -0.0479,0.0204 -0.07129,0.0425 -0.02228,0.0221 -0.04344,0.0697 -0.0323,0.0748 -0.102481,0.33482 l -0.323039,1.19654 q -0.05792,0.21415 -0.09357,0.27874 -0.06015,0.10708 -0.152608,0.10708 -0.05904,0 -0.0958,-0.0357 -0.03565,-0.034 -0.03565,-0.0901 0,-0.0442 0.02116,-0.0714 0.02116,-0.0255 0.0557,-0.0255 0.02896,0 0.06684,0.0238 0.03676,0.0221 0.04678,0.0272 0.01114,0.005 0.02562,0.005 0.06906,0 0.112507,-0.15807 l 0.03453,-0.12917 q 0.02228,-0.0816 0.02228,-0.12577 0,-0.0629 -0.04233,-0.21925 l -0.231696,-0.84811 -0.03342,-0.12238 q -0.03008,-0.10877 -0.04678,-0.15466 -0.01671,-0.0459 -0.03342,-0.0663 -0.02785,-0.0323 -0.06684,-0.0391 z"
       inkscape:connector-curvature="0" />
  </g>
</svg>
