<svg height="512" viewBox="0 0 74 74" width="512" xmlns="http://www.w3.org/2000/svg"><g id="color_line" data-name="color line"><path d="m11 38.6v14.13a5.594 5.594 0 0 0 4.585 5.489h42.837a5.581 5.581 0 0 0 4.572-5.489v-14.13z" fill="#707583"/><path d="m15.583 58.718a6.089 6.089 0 0 1 -5.083-5.989v-14.129a.5.5 0 0 1 .5-.5h52a.5.5 0 0 1 .5.5v14.13a6.071 6.071 0 0 1 -4.981 5.98zm-4.083-19.618v13.63a5.08 5.08 0 0 0 4.176 5l42.749-.008a5.065 5.065 0 0 0 4.071-4.989v-13.633z" fill="#323c6b"/><path d="m63.73 31.067c0-14.767-11.967-28.067-26.73-28.067s-26.73 13.3-26.73 28.067v2.233h53.46z" fill="#84879c"/><g opacity=".4"><path d="m37 3a25.771 25.771 0 0 0 -18.044 7.622 25.269 25.269 0 0 1 14.992-5.022c14.763 0 26.73 13.3 26.73 28.067v-.367h3.052v-2.233c0-14.767-11.967-28.067-26.73-28.067z" fill="#707583"/></g><path d="m10.615 33.3h4.963a0 0 0 0 1 0 0v5.3a0 0 0 0 1 0 0h-4.963a1.911 1.911 0 0 1 -1.915-1.912v-1.473a1.911 1.911 0 0 1 1.915-1.915z" fill="#84879c"/><path d="m15.578 39.1h-4.964a2.413 2.413 0 0 1 -2.414-2.412v-1.474a2.413 2.413 0 0 1 2.41-2.41h4.964a.5.5 0 0 1 .5.5v5.296a.5.5 0 0 1 -.496.5zm-4.964-5.3a1.412 1.412 0 0 0 -1.41 1.41v1.474a1.412 1.412 0 0 0 1.41 1.411h4.464v-4.295z" fill="#323c6b"/><path d="m60.332 33.3h4.968a0 0 0 0 1 0 0v5.3a0 0 0 0 1 0 0h-4.968a1.911 1.911 0 0 1 -1.911-1.911v-1.474a1.911 1.911 0 0 1 1.911-1.915z" fill="#84879c" transform="matrix(-1 0 0 -1 123.718 71.903)"/><path d="m63.386 39.1h-4.964a.5.5 0 0 1 -.5-.5v-5.3a.5.5 0 0 1 .5-.5h4.964a2.413 2.413 0 0 1 2.41 2.41v1.474a2.413 2.413 0 0 1 -2.41 2.416zm-4.464-1h4.464a1.412 1.412 0 0 0 1.41-1.411v-1.475a1.412 1.412 0 0 0 -1.41-1.41h-4.464z" fill="#323c6b"/><path d="m37 26.482c.646.087 5.74-1.811 5.74-6.024v-5.839c-4.592-.813-5.74-2.494-5.74-2.494s-1.148 1.681-5.74 2.494v5.839c0 4.213 5.094 6.111 5.74 6.024z" fill="#89c5cd"/><path d="m37 12.125a4.883 4.883 0 0 1 -1.834 1.312c.361.4 1.785 1.688 5.637 2.37v5.839a5.62 5.62 0 0 1 -2.334 4.392c1.721-.779 4.272-2.6 4.272-5.579v-5.84c-4.593-.813-5.741-2.494-5.741-2.494z" fill="#80b8bc"/><g fill="#323c6b"><path d="m12.063 14.938a.5.5 0 0 1 -.425-.764 32.282 32.282 0 0 1 5.968-7.1.5.5 0 1 1 .664.748 31.284 31.284 0 0 0 -5.783 6.878.5.5 0 0 1 -.424.238z"/><path d="m20.164 6.156a.5.5 0 0 1 -.3-.9c.2-.15.4-.3.6-.439a.5.5 0 1 1 .572.82c-.193.135-.383.275-.57.417a.5.5 0 0 1 -.302.102z"/><path d="m51.332 70.213a.5.5 0 0 1 -.1-.989 12.3 12.3 0 0 0 6.868-4.155.5.5 0 0 1 .77.64 13.3 13.3 0 0 1 -7.433 4.491.506.506 0 0 1 -.105.013z"/><path d="m48.5 70.5h-.672a.5.5 0 0 1 0-1h.672a.5.5 0 0 1 0 1z"/></g><path d="m15.578 57.273v-23.973h42.844v23.973a9.727 9.727 0 0 1 -9.722 9.727h-23.4a9.727 9.727 0 0 1 -9.722-9.727z" fill="#ebf0f3"/><path d="m55.37 33.3v23.973a9.727 9.727 0 0 1 -9.726 9.727h3.056a9.727 9.727 0 0 0 9.727-9.727v-23.973z" fill="#e1e6e9"/><path d="m35.923 33.5-11.742 33.25h1.077l11.742-33.25z" fill="#e1e6e9"/><path d="m40.257 33.5-11.742 33.25h2.484l11.741-33.25z" fill="#e1e6e9"/><path d="m44.737 33.5-11.741 33.25h3.04l11.741-33.25z" fill="#e1e6e9"/><path d="m63.73 33.8h-53.46a.5.5 0 0 1 -.5-.5v-2.233c0-15.485 12.469-28.567 27.23-28.567s27.23 13.082 27.23 28.567v2.233a.5.5 0 0 1 -.5.5zm-52.961-1h52.461v-1.733c0-14.943-12.011-27.567-26.23-27.567s-26.23 12.624-26.23 27.567z" fill="#323c6b"/><path d="m48.7 67.5h-23.4a10.238 10.238 0 0 1 -10.222-10.227v-23.973a.5.5 0 0 1 .5-.5h42.844a.5.5 0 0 1 .5.5v23.973a10.238 10.238 0 0 1 -10.222 10.227zm-32.622-33.7v23.473a9.237 9.237 0 0 0 9.222 9.227h23.4a9.237 9.237 0 0 0 9.227-9.227v-23.473z" fill="#323c6b"/><path d="m53.271 30.664h-9.016a.6.6 0 0 1 0-1.2h9.016a.6.6 0 0 1 0 1.2z" fill="#fff"/><path d="m56.677 30.664h-.562a.6.6 0 0 1 0-1.2h.563a.6.6 0 0 1 0 1.2z" fill="#fff"/><path d="m37.025 26.983h-.051a8.1 8.1 0 0 1 -3.983-1.978 5.988 5.988 0 0 1 -2.231-4.547v-5.839a.5.5 0 0 1 .413-.492c4.262-.754 5.407-2.274 5.418-2.29a.459.459 0 0 1 .409-.209.5.5 0 0 1 .408.215c.007.009 1.152 1.529 5.414 2.284a.5.5 0 0 1 .413.492v5.839a5.988 5.988 0 0 1 -2.231 4.547 8.1 8.1 0 0 1 -3.979 1.978zm-5.265-11.949v5.424a4.827 4.827 0 0 0 1.563 3.491 7.735 7.735 0 0 0 3.626 2.036.4.4 0 0 1 .1 0 7.751 7.751 0 0 0 3.623-2.036 4.827 4.827 0 0 0 1.563-3.491v-5.424a10.972 10.972 0 0 1 -5.235-2.189 10.972 10.972 0 0 1 -5.24 2.189z" fill="#323c6b"/></g></svg>